<?xml version="1.0" encoding="UTF-8"?>
<svg version="1.1" xmlns="http://www.w3.org/2000/svg" width="2000" height="1950">
<path d="M0 0 C2.32968824 -0.00239381 4.65937571 -0.00566154 6.98906165 -0.0097166 C13.37379097 -0.01830592 19.75846121 -0.01452291 26.14319138 -0.00866088 C32.37775972 -0.0039222 38.6123219 -0.01062192 44.84688802 -0.01600846 C57.74536223 -0.02681338 70.64382181 -0.02817318 83.54229927 -0.02431011 C96.60615222 -0.02042881 109.66999427 -0.02089684 122.73384666 -0.02661991 C123.56025125 -0.02697874 124.38665584 -0.02733756 125.238103 -0.02770726 C128.60416211 -0.02918224 131.97022121 -0.03068665 135.3362803 -0.03222873 C169.47565168 -0.04785031 203.61501557 -0.05054414 237.75438987 -0.04807267 C242.46900327 -0.04773421 247.18361667 -0.04741211 251.89823008 -0.04710698 C252.83471464 -0.04704594 253.77119921 -0.04698489 254.7360621 -0.046922 C275.50405294 -0.04564927 296.27204276 -0.04825301 317.0400333 -0.05163305 C321.78431021 -0.05240379 326.52858712 -0.05314853 331.27286404 -0.05389806 C333.17698758 -0.05419976 335.08111113 -0.05450164 336.98523467 -0.05480371 C337.92908607 -0.05495338 338.87293747 -0.05510306 339.84539043 -0.05525728 C341.75456869 -0.05556081 343.66374695 -0.05586549 345.57292521 -0.05617132 C399.73605078 -0.06484288 453.89917545 -0.06948934 508.06230164 -0.06522369 C509.56628694 -0.06510661 509.56628694 -0.06510661 511.10065578 -0.06498716 C522.28095164 -0.06411438 533.46124749 -0.06318512 544.64154334 -0.06223653 C545.65092935 -0.06215102 546.66031536 -0.06206551 547.70028882 -0.06197741 C556.08666259 -0.06126668 556.08666259 -0.06126668 559.94637471 -0.06093518 C624.50486098 -0.05539985 689.06333295 -0.06294087 753.62181664 -0.08170605 C769.88841626 -0.0864284 786.15501589 -0.09110898 802.4216156 -0.09554291 C803.42326466 -0.09581623 804.42491371 -0.09608955 805.45691577 -0.09637116 C836.33693247 -0.10474472 867.21694797 -0.10942233 898.09696579 -0.11025047 C899.55158315 -0.11029002 899.55158315 -0.11029002 901.03558672 -0.11033037 C922.32551038 -0.1108712 943.61543395 -0.1104986 964.90535757 -0.10929066 C972.52354797 -0.10886505 980.14173837 -0.10849992 987.75992877 -0.10816122 C989.65507616 -0.10807591 991.55022354 -0.10798698 993.44537093 -0.1078944 C1023.61835096 -0.1064468 1053.79132127 -0.11356426 1083.96429897 -0.12489836 C1115.20606182 -0.13655793 1146.44780733 -0.13710163 1177.68957026 -0.12505493 C1181.04815534 -0.12380316 1184.40674044 -0.12259967 1187.76532555 -0.12143421 C1189.00166946 -0.12099877 1189.00166946 -0.12099877 1190.26299003 -0.12055453 C1203.28612591 -0.11623805 1216.30923704 -0.12194439 1229.33236903 -0.1318744 C1242.15446282 -0.14143834 1254.97651861 -0.1402008 1267.79861022 -0.12766818 C1274.65049255 -0.12126 1281.50228049 -0.11981649 1288.35415871 -0.13153151 C1294.59931987 -0.14211072 1300.84431662 -0.13864431 1307.08946911 -0.12442699 C1309.32322129 -0.12172002 1311.5569869 -0.12392687 1313.79072637 -0.13193413 C1333.10154025 -0.19637927 1352.15730989 1.55906715 1371.08128929 5.50447559 C1372.60532372 5.81699268 1372.60532372 5.81699268 1374.16014671 6.13582325 C1392.74306108 10.07190172 1410.85697136 15.62210281 1428.64378929 22.25447559 C1429.86195335 22.70049122 1431.08011742 23.14650684 1432.33519554 23.60603809 C1473.15716332 39.20504701 1510.71231371 63.60240445 1542.56566429 93.39900684 C1545.16665264 95.82761156 1547.82808792 98.17528002 1550.51878929 100.50447559 C1553.82773353 103.43115913 1556.73180461 106.50180931 1559.57738304 109.87556934 C1561.74036239 112.36565332 1563.98882664 114.75285046 1566.2580471 117.14558887 C1572.38351074 123.62505429 1578.04498849 130.26911932 1583.32201195 137.46150684 C1584.73961593 139.38446282 1586.18174081 141.28765026 1587.62425804 143.19197559 C1596.93498452 155.62972786 1604.88817052 168.80488839 1612.64378929 182.25447559 C1613.05467796 182.96136524 1613.46556664 183.66825489 1613.88890648 184.39656544 C1641.94790668 233.07957731 1656.02403843 290.89482415 1655.89826488 346.85636806 C1655.90065949 349.09141526 1655.90392773 351.32646165 1655.90798149 353.56150645 C1655.91655985 359.6788069 1655.91279241 365.79604559 1655.90692576 371.91334692 C1655.90317408 377.88928257 1655.90888915 383.86520762 1655.91427335 389.84114039 C1655.92507219 402.20266746 1655.92643986 414.56417926 1655.922575 426.92570972 C1655.91869242 439.44409928 1655.91916374 451.96247746 1655.9248848 464.48086643 C1655.92524362 465.27304255 1655.92560245 466.06521866 1655.92597215 466.88140011 C1655.92744714 470.10809227 1655.92895155 473.33478442 1655.93049361 476.56147655 C1655.94611138 509.27977062 1655.94880944 541.99805687 1655.94633755 574.71635399 C1655.94599909 579.23401919 1655.94567699 583.75168438 1655.94537187 588.26934958 C1655.9452803 589.61541348 1655.9452803 589.61541348 1655.94518689 590.98867059 C1655.94391392 610.89318216 1655.94651832 630.79769267 1655.94989793 650.70220392 C1655.95066868 655.24981621 1655.95141342 659.7974285 1655.95216295 664.34504079 C1655.95246464 666.17024604 1655.95276652 667.99545129 1655.95306859 669.82065655 C1655.95321827 670.72539201 1655.95336795 671.63012748 1655.95352217 672.56227918 C1655.9538257 674.39234344 1655.95413038 676.2224077 1655.95443621 678.05247196 C1655.96310719 729.9679238 1655.96775463 781.8833747 1655.96348858 833.79882717 C1655.96341052 834.75978194 1655.96333247 835.72073671 1655.96325204 836.71081133 C1655.96237928 847.42599082 1655.96145001 858.1411703 1655.96050141 868.85634978 C1655.9604159 869.82373553 1655.96033039 870.79112128 1655.96024229 871.78782175 C1655.95953158 879.82502802 1655.95953158 879.82502802 1655.95920006 883.52434382 C1655.95366483 945.39549388 1655.96120572 1007.26662901 1655.97997093 1069.13777637 C1655.98469333 1084.72733844 1655.98937392 1100.31690052 1655.99380779 1115.90646267 C1655.99408111 1116.86643514 1655.99435444 1117.82640761 1655.99463604 1118.81547016 C1656.00301023 1148.4129079 1656.00768727 1178.0103444 1656.00851536 1207.60778332 C1656.00854172 1208.53731529 1656.00856809 1209.46684726 1656.00859526 1210.42454686 C1656.0091361 1230.83209243 1656.00876346 1251.23963789 1656.00755554 1271.64718342 C1656.00712994 1278.94970917 1656.00676481 1286.25223493 1656.0064261 1293.55476068 C1656.0063408 1295.37136476 1656.00625186 1297.18796883 1656.00615928 1299.00457291 C1656.00471199 1327.92090031 1656.01182716 1356.83721756 1656.02316324 1385.75354253 C1656.03482557 1415.69595438 1656.03536351 1445.63834814 1656.02331982 1475.58076008 C1656.02206806 1478.8003995 1656.02086456 1482.02003893 1656.0196991 1485.23967838 C1656.0194088 1486.02980348 1656.01911851 1486.81992858 1656.01881942 1487.63399687 C1656.01450481 1500.11265468 1656.02020598 1512.59128665 1656.03013929 1525.06994041 C1656.03970887 1537.35927225 1656.03845818 1549.64856447 1656.02593307 1561.93789405 C1656.01952992 1568.50365716 1656.01806893 1575.06934744 1656.0297964 1581.63511081 C1656.04039086 1587.62182168 1656.0368905 1593.60836125 1656.02269187 1599.59506314 C1656.01998929 1601.73413246 1656.022178 1603.87321583 1656.03019902 1606.01227181 C1656.09850722 1625.58277604 1654.2466306 1644.98932133 1650.39378929 1664.19197559 C1650.18399437 1665.2515044 1649.97419945 1666.31103321 1649.7580471 1667.40266895 C1642.86917015 1701.12387075 1631.41911738 1733.82003179 1614.86986351 1764.01717091 C1613.71215304 1766.12972741 1612.5697822 1768.24996328 1611.42894554 1770.37166309 C1603.40086572 1785.1342587 1593.93820345 1798.98572378 1583.64378929 1812.25447559 C1582.80727742 1813.35950978 1581.9713641 1814.46499727 1581.13597679 1815.57088184 C1575.12643041 1823.45127243 1568.63699871 1830.72525334 1561.80785179 1837.90291309 C1559.37955387 1840.45610302 1557.04446124 1843.0631558 1554.76878929 1845.75447559 C1552.08197557 1848.86587222 1549.17987109 1851.51386339 1546.04222679 1854.16463184 C1544.18550142 1855.78246258 1542.39764626 1857.42375204 1540.62035179 1859.12556934 C1531.79574516 1867.55986678 1522.4950469 1875.05285138 1512.64378929 1882.25447559 C1511.92755394 1882.77960743 1511.21131859 1883.30473927 1510.47337914 1883.84578419 C1501.42179879 1890.44789689 1492.20479151 1896.60836044 1482.4899807 1902.19099903 C1480.66241954 1903.24374386 1478.8463719 1904.31452255 1477.03050804 1905.38728809 C1441.5461597 1926.10633712 1402.18018857 1939.91958493 1361.70628929 1946.87947559 C1361.0635305 1946.9907378 1360.42077171 1947.10200001 1359.75853539 1947.2166338 C1357.39117509 1947.60030548 1355.01994233 1947.92885224 1352.64378929 1948.25447559 C1351.45110289 1948.41880935 1350.25841649 1948.58314311 1349.02958808 1948.75245668 C1336.43189755 1950.3740314 1323.97454304 1950.53621826 1311.28757858 1950.50895119 C1308.95789034 1950.511345 1306.62820287 1950.51461273 1304.29851693 1950.51866779 C1297.91378761 1950.52725711 1291.52911737 1950.52347409 1285.1443872 1950.51761206 C1278.90981886 1950.51287338 1272.67525668 1950.51957311 1266.44069056 1950.52495965 C1253.54221635 1950.53576457 1240.64375677 1950.53712437 1227.74527931 1950.5332613 C1214.68142636 1950.52938 1201.61758431 1950.52984803 1188.55373192 1950.5355711 C1187.72732733 1950.53592992 1186.90092274 1950.53628875 1186.04947559 1950.53665845 C1182.68341647 1950.53813343 1179.31735737 1950.53963783 1175.95129828 1950.54117992 C1141.81192691 1950.5568015 1107.67256302 1950.55949532 1073.53318871 1950.55702385 C1068.81857531 1950.55668539 1064.10396191 1950.5563633 1059.38934851 1950.55605817 C1058.45286394 1950.55599712 1057.51637937 1950.55593608 1056.55151648 1950.55587319 C1035.78352564 1950.55460046 1015.01553582 1950.5572042 994.24754528 1950.56058424 C989.50326837 1950.56135498 984.75899146 1950.56209972 980.01471455 1950.56284925 C978.110591 1950.56315094 976.20646745 1950.56345282 974.30234391 1950.56375489 C972.88656681 1950.56397941 972.88656681 1950.56397941 971.44218815 1950.56420847 C969.53300989 1950.564512 967.62383163 1950.56481668 965.71465338 1950.56512251 C911.5515278 1950.57379407 857.38840313 1950.57844052 803.22527695 1950.57417488 C802.22262008 1950.57409682 801.21996321 1950.57401877 800.1869228 1950.57393835 C789.00662695 1950.57306557 777.82633109 1950.57213631 766.64603524 1950.57118771 C765.63664923 1950.5711022 764.62726322 1950.57101669 763.58728976 1950.57092859 C755.20091592 1950.57021786 755.20091592 1950.57021786 751.34120387 1950.56988637 C686.7827176 1950.56435104 622.22424563 1950.57189206 557.66576195 1950.59065723 C541.39916232 1950.59537959 525.13256269 1950.60006016 508.86596298 1950.60449409 C507.86431393 1950.60476742 506.86266487 1950.60504074 505.83066281 1950.60532234 C474.95064612 1950.6136959 444.07063061 1950.61837352 413.19061279 1950.61920166 C411.73599543 1950.61924121 411.73599543 1950.61924121 410.25199186 1950.61928156 C388.9620682 1950.61982239 367.67214464 1950.61944979 346.38222101 1950.61824184 C338.76403061 1950.61781623 331.14584021 1950.6174511 323.52764981 1950.6171124 C321.63250243 1950.6170271 319.73735504 1950.61693817 317.84220766 1950.61684558 C287.66922762 1950.61539799 257.49625731 1950.62251545 227.32327961 1950.63384954 C196.08151676 1950.64550912 164.83977125 1950.64605282 133.59800832 1950.63400612 C130.23942324 1950.63275434 126.88083815 1950.63155085 123.52225304 1950.6303854 C122.28590912 1950.62994996 122.28590912 1950.62994996 121.02458856 1950.62950572 C108.00145268 1950.62518924 94.97834155 1950.63089558 81.95520955 1950.64082559 C69.13311577 1950.65038953 56.31105997 1950.64915198 43.48896836 1950.63661937 C36.63708604 1950.63021119 29.78529809 1950.62876768 22.93341987 1950.6404827 C16.68825872 1950.6510619 10.44326196 1950.6475955 4.19810947 1950.63337817 C1.96435729 1950.6306712 -0.26940832 1950.63287806 -2.50314779 1950.64088532 C-22.00073422 1950.70595377 -41.1589392 1948.79049115 -60.29371071 1945.00447559 C-61.35307838 1944.79758106 -62.41244606 1944.59068653 -63.50391579 1944.37752247 C-75.30298535 1941.98616071 -86.84007589 1938.74169585 -98.35621071 1935.25447559 C-99.06745094 1935.04355274 -99.77869118 1934.83262989 -100.51148415 1934.61531544 C-132.33151145 1925.10202707 -163.13148686 1909.16354674 -190.35621071 1890.25447559 C-191.98236305 1889.13492481 -191.98236305 1889.13492481 -193.64136696 1887.99275684 C-206.40580884 1879.10612009 -218.3868928 1869.28874414 -229.75074196 1858.67635059 C-231.9764423 1856.60748371 -234.23639454 1854.60588002 -236.54371071 1852.62947559 C-243.73180242 1846.38090624 -250.17805166 1839.48655589 -256.35621071 1832.25447559 C-257.24859274 1831.23680504 -258.14189768 1830.21994338 -259.03589821 1829.20369434 C-264.57260312 1822.87472465 -269.87092863 1816.41924872 -274.91871071 1809.69197559 C-275.41910866 1809.02553028 -275.91950661 1808.35908497 -276.43506813 1807.67244434 C-278.942239 1804.29117844 -281.20231897 1800.87484681 -283.35621071 1797.25447559 C-284.01621071 1796.59447559 -284.67621071 1795.93447559 -285.35621071 1795.25447559 C-286.02287738 1793.92114226 -286.68954404 1792.58780893 -287.35621071 1791.25447559 C-288.01621071 1790.59447559 -288.67621071 1789.93447559 -289.35621071 1789.25447559 C-291.73568549 1785.31721516 -293.95968757 1781.29036482 -296.21216774 1777.27937794 C-297.32972132 1775.30136057 -298.46346503 1773.3335811 -299.60230446 1771.36775684 C-304.70726765 1762.50771118 -309.23050536 1753.48437144 -313.46705055 1744.17976856 C-314.25437561 1742.47497851 -315.07808228 1740.78709434 -315.90699196 1739.10213184 C-321.05971032 1728.53280928 -324.64259161 1717.39129855 -328.35621071 1706.25447559 C-328.60258278 1705.52857227 -328.84895485 1704.80266895 -329.10279274 1704.05476856 C-339.79618717 1672.46243696 -344.68494557 1639.9253805 -344.6106863 1606.67913342 C-344.61308042 1604.43471654 -344.61634834 1602.19030045 -344.6204029 1599.94588596 C-344.62898807 1593.79791509 -344.62521096 1587.65000561 -344.61934718 1581.50203386 C-344.61559762 1575.49769901 -344.62130911 1569.49337728 -344.62669476 1563.48904547 C-344.63749739 1551.06760512 -344.63886016 1538.64617995 -344.63499641 1526.22473621 C-344.63111463 1513.64465031 -344.6315839 1501.06457572 -344.63730621 1488.48449039 C-344.63766504 1487.68858285 -344.63802386 1486.8926753 -344.63839356 1486.07264934 C-344.63986855 1482.83078942 -344.64137295 1479.58892952 -344.64291503 1476.34706963 C-344.65853518 1443.47020992 -344.66123059 1410.59335797 -344.65875897 1377.71649521 C-344.65842051 1373.17649329 -344.65809841 1368.63649136 -344.65779328 1364.09648943 C-344.65773224 1363.19468386 -344.6576712 1362.29287829 -344.6576083 1361.36374528 C-344.65633548 1341.36332866 -344.65893948 1321.3629131 -344.66231935 1301.36249679 C-344.6630901 1296.79333468 -344.66383483 1292.22417258 -344.66458436 1287.65501047 C-344.66488606 1285.82116406 -344.66518794 1283.98731765 -344.66549001 1282.15347124 C-344.66563969 1281.24445419 -344.66578937 1280.33543713 -344.66594358 1279.39887411 C-344.66624711 1277.56015397 -344.6665518 1275.72143382 -344.66685763 1273.88271368 C-344.67552897 1221.7196539 -344.68017579 1169.55659507 -344.67591 1117.39353466 C-344.67583194 1116.42793758 -344.67575388 1115.4623405 -344.67567346 1114.46748291 C-344.67480069 1103.70047232 -344.67387143 1092.93346173 -344.67292283 1082.16645114 C-344.67283732 1081.19438094 -344.67275181 1080.22231073 -344.67266371 1079.22078385 C-344.67195298 1071.14453131 -344.67195298 1071.14453131 -344.67162148 1067.42742427 C-344.66608622 1005.25632486 -344.67362707 943.08524029 -344.69239235 880.91414356 C-344.69711472 865.2491217 -344.7017953 849.58409982 -344.70622921 833.91907787 C-344.70650253 832.95446648 -344.70677585 831.98985508 -344.70705746 830.99601304 C-344.7154313 801.25681739 -344.72010866 771.51762299 -344.72093678 741.77842617 C-344.72096314 740.84447794 -344.72098951 739.91052972 -344.72101667 738.94828003 C-344.72155751 718.44403108 -344.72118489 697.93978223 -344.71997696 677.43553331 C-344.71955135 670.09844389 -344.71918622 662.76135446 -344.71884752 655.42426503 C-344.71876222 653.59905294 -344.71867328 651.77384085 -344.7185807 649.94862876 C-344.71713323 620.89177988 -344.7242497 591.83494111 -344.73558466 562.77809466 C-344.74724546 532.69111853 -344.7477866 502.6041604 -344.73574124 472.51718418 C-344.73448946 469.28241186 -344.73328597 466.04763952 -344.73212051 462.81286716 C-344.73183022 462.01902515 -344.73153993 461.22518313 -344.73124083 460.4072853 C-344.72692518 447.86677213 -344.73262924 435.32628468 -344.74256071 422.78577556 C-344.75212714 410.43738053 -344.75088378 398.08902495 -344.73835448 385.74063219 C-344.73194853 379.14251903 -344.7304973 372.54447836 -344.74221782 365.94636492 C-344.75280376 359.93145869 -344.74932235 353.91672306 -344.73511329 347.90182579 C-344.73240826 345.751426 -344.73460711 343.60101223 -344.74262043 341.45062567 C-344.80897796 322.32178935 -343.00008902 303.42585313 -339.04371071 284.69197559 C-338.82916237 283.66137012 -338.61461403 282.63076466 -338.39356422 281.56892872 C-337.73342218 278.45958124 -337.05033335 275.35639903 -336.35621071 272.25447559 C-336.1518943 271.32908985 -335.9475779 270.40370411 -335.73707008 269.45027637 C-324.31358977 218.88777661 -299.42333922 170.00947287 -266.35621071 130.25447559 C-265.89182594 129.69389454 -265.42744118 129.13331348 -264.94898415 128.55574512 C-249.39274567 109.87037822 -232.56338433 92.23042939 -213.35621071 77.25447559 C-212.77919411 76.79428028 -212.20217751 76.33408497 -211.60767555 75.85994434 C-151.84695902 28.21143072 -76.58882805 -0.16460621 0 0 Z " fill="#001E36" transform="translate(344.35621070861816,-0.25447559356689453)"/>
<path d="M0 0 C3.01340833 -0.00248422 6.02681195 -0.00644229 9.04021835 -0.01062775 C13.8403731 -0.01657972 18.64049498 -0.01649126 23.44065094 -0.01195526 C25.21379575 -0.0108899 26.98694237 -0.01137736 28.76008606 -0.01363373 C44.30310285 -0.03005478 59.84026668 0.35709796 75.29085922 2.17327118 C76.17097168 2.27334976 77.05108414 2.37342834 77.95786667 2.47653961 C79.78510929 2.68619928 81.61201643 2.89880484 83.4385643 3.11443329 C86.16362767 3.43426954 88.89011556 3.7388232 91.6170311 4.0424118 C103.03786578 5.35041995 114.24026451 7.2292404 125.47933578 9.63996124 C128.5347882 10.2943729 131.59486426 10.92595236 134.65488815 11.55858612 C144.38901537 13.61519157 153.86390668 16.41582341 163.35433578 19.38323212 C165.60905658 20.08418638 167.86842901 20.76668518 170.13070297 21.44280243 C177.14174719 23.55466174 183.97332085 25.88029205 190.69320297 28.81389618 C193.22494553 29.9040424 195.76554304 30.9296247 198.32992172 31.93889618 C204.22935858 34.28976238 210.01478572 36.86856673 215.79476547 39.49748993 C217.33100571 40.18198212 217.33100571 40.18198212 218.8982811 40.88030243 C224.51269051 43.43458965 229.64804821 46.20461969 234.71004868 49.72942352 C237.64292338 51.74982472 240.70712328 53.47218269 243.79476547 55.24748993 C259.14989928 64.28638321 273.12634231 75.88543704 286.25570297 87.86858368 C287.93478753 89.39670953 289.6280737 90.90934851 291.33382797 92.40764618 C296.5767505 97.02490272 301.29673269 101.73161163 305.73226547 107.12248993 C306.19503891 107.67291962 306.65781235 108.2233493 307.13460922 108.79045868 C341.53696145 149.71295746 361.67756732 198.48085612 369.73226547 251.12248993 C369.98218246 252.7099704 369.98218246 252.7099704 370.23714828 254.32952118 C374.74485355 284.0075807 374.20085873 315.35865639 370.73226547 345.12248993 C370.59546371 346.39817841 370.59546371 346.39817841 370.45589828 347.69963837 C362.744891 418.07272587 327.97598187 484.87211105 272.54964828 529.36394501 C269.64073225 531.65732664 266.69367202 533.89748703 263.73226547 536.12248993 C263.18521957 536.53708466 262.63817368 536.95167938 262.07455063 537.37883759 C246.69604792 548.96437426 229.85993919 558.39400611 212.73226547 567.12248993 C212.06630356 567.46860321 211.40034164 567.81471649 210.71419907 568.17131805 C206.51340822 570.32660273 202.33508059 572.09196652 197.85726547 573.62248993 C193.88043762 574.98808279 189.96846685 576.42721978 186.08382797 578.03264618 C180.1595969 580.42002288 174.10687383 582.26076477 167.98226547 584.05998993 C166.81082993 584.40626434 165.63939438 584.75253876 164.43246078 585.10930634 C154.33387734 588.04481387 144.16301104 590.42929324 133.88314438 592.62688446 C132.06659382 593.045454 130.27382586 593.56529328 128.49007797 594.10686493 C122.68987154 595.67448829 116.78809949 596.56886191 110.85726547 597.49748993 C110.17685196 597.6047641 109.49643845 597.71203827 108.79540634 597.82256317 C96.37873429 599.75783336 83.92582526 601.15891653 71.41976547 602.37248993 C70.57633591 602.45521149 69.73290634 602.53793304 68.8639183 602.62316132 C63.15740688 603.17685802 57.44822511 603.67675715 51.73226547 604.12248993 C50.66768616 604.2062085 50.66768616 604.2062085 49.58160019 604.29161835 C34.0999674 605.44708174 18.56633921 605.27577755 3.05184555 605.25286102 C-0.71119897 605.24732219 -4.47417262 605.25028532 -8.23721439 605.25620949 C-24.97625564 605.27730226 -41.69592475 605.08505625 -58.4286232 604.61418915 C-60.17469959 604.56644703 -61.92078062 604.51887456 -63.6668663 604.47147369 C-67.86721152 604.3570888 -72.06748834 604.24045269 -76.26773453 604.12248993 C-76.26659537 604.6940191 -76.26545621 605.26554828 -76.26428252 605.85439652 C-76.19717172 639.71577156 -76.14568671 673.5771315 -76.11453854 707.43855853 C-76.11078635 711.50288018 -76.10690339 715.56720169 -76.10293961 719.63152313 C-76.10215267 720.44066818 -76.10136574 721.24981323 -76.10055497 722.08347783 C-76.08749532 735.19100333 -76.06383841 748.29848941 -76.03627614 761.40599152 C-76.00823747 774.85203075 -75.99156153 788.29804933 -75.98546904 801.7441166 C-75.9813494 810.04338365 -75.96833035 818.34253931 -75.94398513 826.64177207 C-75.92814692 832.33019262 -75.92332981 838.01855545 -75.9272304 843.70699646 C-75.92915495 846.99066022 -75.92453993 850.27408759 -75.9101181 853.55772591 C-75.89525136 857.11631068 -75.89876004 860.67441405 -75.90697098 864.23300934 C-75.89823245 865.27289212 -75.88949393 866.3127749 -75.8804906 867.38416928 C-75.93588714 876.23140608 -75.93588714 876.23140608 -79.26773453 880.12248993 C-82.94140849 882.5716059 -84.71745962 882.37601366 -89.10013199 882.38318634 C-89.79886602 882.38701189 -90.49760005 882.39083743 -91.21750784 882.39477891 C-93.5644042 882.40511734 -95.91105629 882.40111525 -98.2579689 882.39714813 C-99.93825381 882.40149411 -101.61853672 882.40667687 -103.29881668 882.4126358 C-107.86689885 882.42604837 -112.43489841 882.42660205 -117.00299644 882.4240725 C-120.81287922 882.42300447 -124.62274516 882.42788177 -128.43262434 882.43267792 C-137.41787564 882.44378059 -146.40308515 882.44420603 -155.38834 882.43816376 C-164.6672902 882.4321201 -173.94608891 882.44444318 -183.22501326 882.46573383 C-191.18430027 882.48332708 -199.14353896 882.48935485 -207.10284472 882.48609608 C-211.8598508 882.48427968 -216.6167488 882.48695495 -221.37373734 882.50081062 C-225.8454534 882.51334766 -230.31693254 882.51148421 -234.78864479 882.49839973 C-236.43219646 882.49602549 -238.0757646 882.49879881 -239.71929741 882.50702286 C-241.95825564 882.5174208 -244.19640854 882.50944678 -246.43533707 882.49671173 C-247.68968803 882.49687947 -248.944039 882.49704721 -250.2364006 882.49722004 C-253.26773453 882.12248993 -253.26773453 882.12248993 -255.13225937 880.78660107 C-257.47743602 877.34959538 -257.39378232 874.22119908 -257.39653569 870.19526774 C-257.39980789 868.94677804 -257.40308008 867.69828835 -257.40645143 866.41196564 C-257.40504123 865.01606346 -257.4035392 863.62016137 -257.4019556 862.22425938 C-257.40390763 860.7433667 -257.40629613 859.26247455 -257.40908358 857.78158322 C-257.41550533 853.68378506 -257.41564347 849.58600645 -257.41480617 845.48820421 C-257.41497524 841.04084897 -257.42087651 836.59350082 -257.42604703 832.1461491 C-257.43538935 823.31275562 -257.43929781 814.47936715 -257.44156599 805.64596935 C-257.44452376 795.07084262 -257.45321854 784.49572257 -257.46198027 773.92059934 C-257.4828413 748.35950197 -257.49329637 722.79840342 -257.50210988 697.23729951 C-257.50631331 685.1526451 -257.51153565 673.06799119 -257.51679441 660.9833372 C-257.53468444 619.64057801 -257.54968256 578.29781868 -257.5571146 536.95505619 C-257.55758936 534.35878614 -257.55806525 531.7625161 -257.55854226 529.16624605 C-257.55877864 527.87869514 -257.55901502 526.59114422 -257.55925855 525.26457662 C-257.56045979 518.74089602 -257.56167523 512.21721544 -257.56290054 505.69353485 C-257.56314069 504.39887793 -257.56338084 503.10422101 -257.56362827 501.77033206 C-257.57152627 459.76725804 -257.59496849 417.76421222 -257.62745649 375.76115051 C-257.66171864 331.38356767 -257.6814623 287.00600133 -257.68475884 242.62840503 C-257.6851764 237.76126444 -257.68565597 232.89412385 -257.68618202 228.02698326 C-257.68630521 226.82850099 -257.68642841 225.63001871 -257.68655533 224.3952188 C-257.68889167 205.07143692 -257.70457556 185.74768769 -257.72502387 166.42391746 C-257.74523324 147.01885032 -257.75078238 127.61382257 -257.74125323 108.20874686 C-257.73601945 96.66734986 -257.74200392 85.12608358 -257.76378791 73.58470528 C-257.77722524 65.88653837 -257.77628207 58.18846214 -257.76338595 50.49029448 C-257.75644195 46.09671187 -257.75597966 41.70338042 -257.77294604 37.30981953 C-257.78823463 33.31845156 -257.78535311 29.327539 -257.76753576 25.3361853 C-257.76436744 23.89586983 -257.76800684 22.4555205 -257.7790275 21.01524371 C-257.79296109 19.06856102 -257.78006601 17.12174068 -257.76567918 15.17506129 C-257.76607936 14.09447482 -257.76647955 13.01388835 -257.76689186 11.90055684 C-257.14214212 8.42350366 -256.04688923 7.24369916 -253.26773453 5.12248993 C-250.06206131 4.57900238 -250.06206131 4.57900238 -246.19766617 4.5165329 C-245.48713215 4.49961175 -244.77659813 4.4826906 -244.04453278 4.46525669 C-241.67228566 4.41331997 -239.30056781 4.38914549 -236.92789078 4.36467743 C-235.23955762 4.33281612 -233.55125805 4.29912965 -231.86299515 4.26374054 C-228.24592964 4.19145104 -224.6289384 4.13111211 -221.01150894 4.08022308 C-215.28889538 3.99952304 -209.56695999 3.89290584 -203.84488297 3.78093719 C-201.90796391 3.74329781 -199.97104373 3.70571558 -198.03412247 3.66819 C-196.59102896 3.64023126 -196.59102896 3.64023126 -195.11878204 3.61170769 C-192.18033775 3.5558331 -189.24185635 3.50262334 -186.30334854 3.45020294 C-169.95349324 3.15630394 -153.61139767 2.70376191 -137.26712418 2.19182587 C-91.50966514 0.76390927 -45.77927436 0.03270791 0 0 Z " fill="#30A7FE" transform="translate(707.2677345275879,495.8775100708008)"/>
<path d="M0 0 C1.25055176 0.01933594 2.50110352 0.03867187 3.78955078 0.05859375 C26.64494043 0.48515242 50.09929794 1.668945 72.60986328 5.88330078 C76.56548372 6.62091707 80.49282276 7.18992596 84.49609375 7.609375 C99.84962997 9.2263358 114.21265654 12.6025389 129 17 C129.8259668 17.24041016 130.65193359 17.48082031 131.50292969 17.72851562 C158.03001568 25.46415618 158.03001568 25.46415618 165 34 C166.11033662 37.32358904 166.13065109 40.46621538 166.14044189 43.95213318 C166.14615204 45.17045837 166.15186218 46.38878357 166.15774536 47.64402771 C166.15899061 48.99111928 166.16011573 50.33821097 166.16113281 51.68530273 C166.16576294 53.10633472 166.17078786 54.52736547 166.17617798 55.94839478 C166.18928258 59.80580816 166.19574279 63.66320416 166.20018864 67.52063632 C166.20312164 69.93082904 166.20722681 72.34101702 166.21169281 74.75120735 C166.22536074 82.29304941 166.23503164 89.83488062 166.2388947 97.3767342 C166.24337814 106.0815804 166.26094219 114.78626979 166.2898953 123.4910683 C166.31150461 130.2215356 166.32159853 136.95195874 166.32293582 143.68246037 C166.32398411 147.70176892 166.32989724 151.72092992 166.34775543 155.74020195 C166.3642239 159.52002178 166.36639772 163.29958291 166.35761642 167.07942581 C166.35684547 168.46574788 166.36119653 169.8520838 166.37107468 171.2383709 C166.38377903 173.13249943 166.37613114 175.02673174 166.36749268 176.92088318 C166.36895924 177.9803588 166.3704258 179.03983442 166.3719368 180.13141537 C165.94312828 183.43862654 164.94452823 185.31535694 163 188 C158.50995206 191.09094102 153.21442174 190.63651432 148 190 C144.33117392 188.80340866 141.02554415 187.12369755 137.625 185.3125 C135.78955363 184.38576281 133.95231474 183.46256705 132.11328125 182.54296875 C130.7977124 181.8785376 130.7977124 181.8785376 129.45556641 181.20068359 C125.4262149 179.23047573 121.29705742 177.66445291 117.08203125 176.1328125 C115.32722603 175.48782706 113.57838546 174.82421143 111.8527832 174.10473633 C105.21375444 171.3418529 98.49866792 169.31613343 91.5625 167.4375 C90.50740234 167.14681641 89.45230469 166.85613281 88.36523438 166.55664062 C86.25155617 165.97521653 84.13647516 165.39886793 82.02001953 164.82763672 C80.14047425 164.31254711 78.26534786 163.78066588 76.39794922 163.22314453 C68.49253808 160.9038819 60.47442258 159.66910246 52.35308838 158.38146973 C49.33385632 157.89200846 46.32297655 157.3609411 43.3119812 156.82342529 C40.34789089 156.29450266 37.38138064 155.77985119 34.41479492 155.26513672 C32.93452781 155.00585065 31.45501769 154.74220371 29.97631836 154.47412109 C11.27308457 151.09379483 -7.48201452 150.79955696 -26.44921875 150.75976562 C-29.26331005 150.74995359 -32.07669978 150.71870083 -34.890625 150.6875 C-50.18699869 150.59939417 -64.33059243 152.53746178 -79 157 C-79.77601563 157.20109375 -80.55203125 157.4021875 -81.3515625 157.609375 C-90.28420705 160.12647759 -97.81365687 166.34698148 -103 174 C-107.80610267 182.93442164 -109.23883058 191.88988265 -108 202 C-98.32709434 229.30255631 -67.89145473 240.89377583 -43.875 252.4375 C-37.31004436 255.55900343 -30.74259527 258.43846695 -23.88671875 260.8671875 C-21.59143085 261.76790941 -19.55259012 262.74069964 -17.3828125 263.88671875 C-11.25235422 267.00957724 -4.64791885 268.84254185 1.89257812 270.91210938 C7.96293984 272.87366029 13.73246871 275.10963158 19.49121094 277.85986328 C22.09939277 279.04516974 24.7283222 280.00902053 27.4375 280.9375 C32.26320692 282.65180707 36.72010233 284.77479072 41.26953125 287.1171875 C45.13274447 289.09179127 49.0558067 290.93475799 52.97851562 292.78759766 C85.02286813 307.94785486 116.16134712 324.62439911 143 348 C143.7734375 348.6496875 144.546875 349.299375 145.34375 349.96875 C149.25874566 353.28143863 152.73576384 356.7521799 156.0390625 360.67578125 C157.48263209 362.38678504 158.962196 364.06757938 160.4609375 365.73046875 C166.06277842 372.00995995 170.87877005 378.5706263 175.375 385.6875 C175.86250732 386.45876221 176.35001465 387.23002441 176.85229492 388.0246582 C184.95077363 401.12886211 190.45111385 415.10630614 194.6875 429.875 C194.87763672 430.52017578 195.06777344 431.16535156 195.26367188 431.83007812 C199.51298568 447.27270634 200.54011043 462.56520413 200.4375 478.5 C200.43443344 479.93835205 200.43443344 479.93835205 200.43130493 481.40576172 C200.35232425 504.2091214 197.7697702 526.42093233 190 548 C189.38511719 549.75763672 189.38511719 549.75763672 188.7578125 551.55078125 C181.68789534 571.37461235 171.84911717 590.08122144 158 606 C157.00227791 607.17961425 156.00627733 608.36068605 155.01171875 609.54296875 C144.81953635 621.61940678 144.81953635 621.61940678 139 627 C138.45988281 627.51046875 137.91976563 628.0209375 137.36328125 628.546875 C117.29385859 646.83138154 93.44443171 660.21087298 68.28271484 670.09985352 C66.38291346 670.84900514 64.4962374 671.63133747 62.61328125 672.421875 C48.53774137 678.08540584 33.71961349 681.4563521 19 685 C18.08234863 685.22461914 17.16469727 685.44923828 16.21923828 685.68066406 C4.55182827 688.48311857 -7.28104903 689.85142342 -19.1875 691.1875 C-20.3212355 691.31505676 -20.3212355 691.31505676 -21.47787476 691.44519043 C-39.59311376 693.45512249 -57.58785677 694.23721289 -75.8125 694.25 C-77.32511414 694.25151062 -77.32511414 694.25151062 -78.86828613 694.25305176 C-116.12245394 694.22824969 -152.82634107 691.26818646 -189.30200195 683.54223633 C-192.04323708 682.99131033 -194.79224632 682.49518976 -197.54437256 682.0020752 C-206.46210961 680.38910293 -215.19741071 678.32670969 -223.9375 675.9375 C-224.99510025 675.6502858 -224.99510025 675.6502858 -226.07406616 675.35726929 C-274.57006767 662.08092948 -274.57006767 662.08092948 -283 649 C-284.09930162 645.70209515 -284.1340929 643.25538306 -284.14717102 639.78175354 C-284.15432632 638.47921631 -284.16148163 637.17667908 -284.16885376 635.83467102 C-284.17169396 634.38790917 -284.1744057 632.94114707 -284.17700195 631.49438477 C-284.18326716 629.97335657 -284.18991402 628.45232992 -284.19691467 626.93130493 C-284.21431464 622.79705366 -284.22487293 618.66281393 -284.2331202 614.52853513 C-284.23827077 611.94665848 -284.24434637 609.36478542 -284.25063133 606.7829113 C-284.26967761 598.70766862 -284.28391192 590.63243508 -284.2922433 582.55717427 C-284.30202531 573.22968387 -284.32837217 563.90243018 -284.36874419 554.57502323 C-284.39887003 547.36816375 -284.41370866 540.16137227 -284.41702431 532.95445102 C-284.41937814 528.64839135 -284.42838198 524.34258473 -284.45348549 520.03659248 C-284.47671075 515.98752929 -284.48102209 511.93888678 -284.47072411 507.88977432 C-284.47022733 506.40304734 -284.47658935 504.91630003 -284.49028015 503.429636 C-284.50791334 501.40157718 -284.49853566 499.37333688 -284.48774719 497.3452301 C-284.49013555 496.20979043 -284.4925239 495.07435076 -284.49498463 493.90450382 C-283.88924021 490.35007632 -282.8289292 489.16824949 -280 487 C-276.13004254 486.3832661 -273.87330409 487.30992981 -270.5859375 489.30859375 C-269.33526489 490.05181885 -269.33526489 490.05181885 -268.05932617 490.81005859 C-266.73058472 491.61564209 -266.73058472 491.61564209 -265.375 492.4375 C-251.66124778 500.50188755 -237.6500023 507.3043537 -222.671875 512.67578125 C-219.37523015 513.86467764 -216.12805844 515.13543386 -212.875 516.4375 C-197.35081845 522.39801909 -181.45744488 526.87061865 -165.24316406 530.49316406 C-162.25746736 531.16777294 -159.28677872 531.90192974 -156.3125 532.625 C-143.70806375 535.51487722 -130.80904444 537.29593814 -118 539 C-116.17698364 539.25535522 -116.17698364 539.25535522 -114.31713867 539.51586914 C-101.83478701 541.15421218 -89.4118063 541.37235442 -76.83422852 541.37060547 C-73.33495116 541.37497198 -69.83694599 541.41141236 -66.33789062 541.44921875 C-42.06012514 541.56885417 -11.13138813 539.45977294 8.4296875 522.94921875 C10.15367437 521.04395429 11.60336259 519.15369321 13 517 C13.40347656 516.41347656 13.80695313 515.82695313 14.22265625 515.22265625 C19.42301378 507.00273629 20.14290646 497.47273826 19 488 C13.00776919 469.22586242 -4.08108058 458.82019327 -20.5625 450.25 C-30.99162046 444.868593 -41.56160139 439.90943319 -52.4375 435.5 C-53.79049699 434.94824123 -55.1433581 434.39614917 -56.49609375 433.84375 C-57.20556152 433.555 -57.9150293 433.26625 -58.64599609 432.96875 C-60.34536114 432.26940541 -62.04050716 431.55977828 -63.73291016 430.84375 C-71.24499475 427.66980437 -78.83769685 424.7894619 -86.5 422 C-99.5288645 417.25684114 -112.20952349 412.0201656 -124.73291016 406.0703125 C-127.23669083 404.88825623 -129.74907273 403.72558646 -132.26171875 402.5625 C-161.73529415 388.82157887 -192.83321734 372.42049518 -216.78125 350.06640625 C-218.76305793 348.22067316 -220.79603216 346.48389326 -222.875 344.75 C-242.87727165 327.19289583 -258.507249 304.10684247 -269.17529297 279.87084961 C-269.9410535 278.13372027 -270.73690287 276.40993986 -271.53515625 274.6875 C-273.43659206 269.90095226 -274.72322222 265.04658824 -276 260.0625 C-276.37125 258.66547852 -276.37125 258.66547852 -276.75 257.24023438 C-277.54621347 254.16942147 -278.28436359 251.09059294 -279 248 C-279.277229 246.81631836 -279.55445801 245.63263672 -279.84008789 244.41308594 C-282.20067072 233.29536626 -282.51394812 222.4646388 -282.4375 211.125 C-282.43479095 210.18278595 -282.43208191 209.2405719 -282.42929077 208.26980591 C-282.3623261 192.87852086 -281.41912924 178.0597862 -278 163 C-277.71914551 161.74509766 -277.71914551 161.74509766 -277.43261719 160.46484375 C-270.41803406 130.2742718 -254.21606226 97.94495579 -231.5390625 76.50390625 C-229.91858621 74.92044592 -228.50071414 73.24969901 -227.0625 71.5 C-223.71698046 67.55333242 -219.98269278 64.2919445 -216 61 C-215.48824219 60.57058105 -214.97648437 60.14116211 -214.44921875 59.69873047 C-153.59247358 8.79241289 -76.75990495 -1.22913456 0 0 Z " fill="#30A7FE" transform="translate(1453,702)"/>
<path d="M0 0 C2.47466645 -0.01175181 4.94930342 -0.03254699 7.42382812 -0.06152344 C21.82837087 -0.22690174 35.93652815 0.25388205 50.21655273 2.09985352 C51.46170151 2.26027634 52.70685028 2.42069916 53.98973083 2.58598328 C66.54498507 4.34746986 78.6085965 7.589755 90.71264648 11.29516602 C92.17347956 11.72260639 93.63440524 12.14973051 95.09545898 12.57641602 C124.58087564 21.68673264 152.0874486 41.96874416 166.94311523 69.29125977 C184.54882546 103.0382421 188.04644916 143.40478732 178.71264648 180.29516602 C178.53072754 181.03412109 178.34880859 181.77307617 178.16137695 182.53442383 C173.39125682 201.24829994 163.91659913 217.33608536 150.71264648 231.29516602 C149.98561523 232.09825195 149.25858398 232.90133789 148.50952148 233.72875977 C133.91056505 249.24635802 113.30559683 261.88679904 92.81030273 267.69897461 C90.44755255 268.37051045 88.09635423 269.07672527 85.74389648 269.78344727 C68.62975302 274.86396169 51.37984812 278.72624423 33.71264648 281.29516602 C32.63694901 281.45977829 31.56125153 281.62439056 30.45295715 281.79399109 C19.38494632 283.35255877 8.52139992 283.57231553 -2.64282227 283.52563477 C-4.56179269 283.52443844 -6.48076371 283.52399076 -8.3997345 283.52424622 C-12.39250434 283.52269478 -16.38518282 283.51450813 -20.37792969 283.50097656 C-25.46108275 283.48395423 -30.54413632 283.48016415 -35.62731457 283.48092175 C-39.57986883 283.48064817 -43.53240194 283.47513756 -47.48494911 283.4679203 C-49.35818637 283.46476977 -51.23142599 283.46277483 -53.10466576 283.4620266 C-55.7322525 283.45982594 -58.35973984 283.4510047 -60.98730469 283.44042969 C-61.73829437 283.44088287 -62.48928406 283.44133606 -63.26303101 283.44180298 C-70.01116081 283.40265592 -76.49801726 282.81742265 -83.28735352 282.29516602 C-83.28735352 189.56516602 -83.28735352 96.83516602 -83.28735352 1.29516602 C-16.20898934 0.05297409 -16.20898934 0.05297409 0 0 Z " fill="#001E36" transform="translate(715.287353515625,659.704833984375)"/>
<path d="M0 0 C0.75410156 0.01289063 1.50820313 0.02578125 2.28515625 0.0390625 C3.45111328 0.08933594 3.45111328 0.08933594 4.640625 0.140625 C5.82978516 0.16769531 5.82978516 0.16769531 7.04296875 0.1953125 C8.99270848 0.24229418 10.94182378 0.31403456 12.890625 0.390625 C12.890625 0.720625 12.890625 1.050625 12.890625 1.390625 C11.77042969 1.42800781 10.65023438 1.46539062 9.49609375 1.50390625 C8.0234041 1.56956757 6.55074934 1.63601486 5.078125 1.703125 C4.34013672 1.72568359 3.60214844 1.74824219 2.84179688 1.77148438 C-1.2100553 1.91437811 -1.2100553 1.91437811 -4.82274758 3.55226912 C-6.6621925 6.18050037 -6.48607663 8.12238426 -6.48838252 11.31603783 C-6.50064546 13.1881596 -6.50064546 13.1881596 -6.51315615 15.098102 C-6.50707842 16.49353965 -6.5007282 17.88897612 -6.49413586 19.28441143 C-6.49806026 20.76481248 -6.50329988 22.24521054 -6.50974163 23.72560278 C-6.5237101 27.82205775 -6.51884996 31.91831332 -6.51111279 36.01477696 C-6.50599153 40.46056892 -6.51818677 44.90631754 -6.52824432 49.35209638 C-6.54347972 57.15319435 -6.54752669 64.95423691 -6.54436684 72.75534821 C-6.53971832 84.35540219 -6.55216747 95.95539311 -6.56819657 107.55543469 C-6.59466864 127.06611718 -6.60716044 146.57678546 -6.61176109 166.08748436 C-6.61636356 185.41329058 -6.62713282 204.73907706 -6.64618874 224.06487465 C-6.64736886 225.26524474 -6.64854899 226.46561483 -6.64976488 227.70235978 C-6.65579007 233.79811189 -6.66192592 239.89386388 -6.66810439 245.98961584 C-6.71169893 289.19709218 -6.74139037 332.40456806 -6.76293945 375.61206055 C-6.78390945 417.59481516 -6.81115593 459.57755801 -6.84692383 501.56030273 C-6.84802331 502.85376058 -6.84912278 504.14721842 -6.85025558 505.47987195 C-6.86130365 518.46897753 -6.87247958 531.45808299 -6.8837492 544.44718837 C-6.90670504 570.90890886 -6.92880731 597.37063004 -6.95039368 623.83235168 C-6.9513873 625.04909322 -6.95238091 626.26583476 -6.95340464 627.51944725 C-7.01969037 708.8098302 -7.06607698 790.10022696 -7.109375 871.390625 C-7.439375 871.390625 -7.769375 871.390625 -8.109375 871.390625 C-8.17790378 788.78998608 -8.24150569 706.18934373 -8.27874756 623.58868408 C-8.27929979 622.36699386 -8.27985202 621.14530364 -8.28042098 619.8865925 C-8.29239143 593.33868135 -8.30347232 566.79076989 -8.31363632 540.24285798 C-8.31862585 527.22456801 -8.32381204 514.20627813 -8.32910156 501.18798828 C-8.3296246 499.8924827 -8.33014763 498.59697712 -8.33068652 497.2622138 C-8.34774481 455.23909265 -8.37779964 413.21599296 -8.41456388 371.19288481 C-8.45226214 328.02395328 -8.47690931 284.85503364 -8.48503496 241.68608592 C-8.48618765 235.59470188 -8.4874902 229.50331789 -8.48888397 223.4119339 C-8.48928851 221.61355124 -8.48928851 221.61355124 -8.48970122 219.77883761 C-8.49443589 200.44651992 -8.51300909 181.11423887 -8.53670314 161.78193615 C-8.5602058 142.36642369 -8.56925857 122.95094772 -8.56338051 103.53542152 C-8.5603284 91.987372 -8.56853609 80.43945556 -8.59256517 68.89142997 C-8.60750397 61.18872674 -8.60807277 53.4861112 -8.59670225 45.78340205 C-8.59063161 41.38717196 -8.59104998 36.9911945 -8.60890773 32.59499094 C-8.62500854 28.60118908 -8.6229392 24.60783869 -8.6059349 20.61404435 C-8.60306127 19.17283811 -8.60699714 17.73159942 -8.61831598 16.29043477 C-8.63265308 14.34255452 -8.62015715 12.39453115 -8.60616899 10.44664836 C-8.60679291 9.36539067 -8.60741683 8.28413298 -8.60805966 7.17010991 C-7.74159556 2.34075763 -4.87788672 -0.14781475 0 0 Z " fill="#2D9FF2" transform="translate(458.109375,500.609375)"/>
<path d="M0 0 C0.66 0.33 1.32 0.66 2 1 C-5.59 8.59 -13.18 16.18 -21 24 C-21.66 23.67 -22.32 23.34 -23 23 C-22.56429688 22.57589844 -22.12859375 22.15179687 -21.6796875 21.71484375 C-18.66354138 18.74439682 -15.75398096 15.76981572 -13.0625 12.5 C-10.24200816 9.13213508 -7.08211943 6.31567091 -3.734375 3.48046875 C-1.91019463 1.96268408 -1.91019463 1.96268408 0 0 Z " fill="#2994E2" transform="translate(1239,761)"/>
<path d="M0 0 C0.80179687 0.00451172 1.60359375 0.00902344 2.4296875 0.01367188 C4.41149006 0.02546832 6.39325433 0.04340395 8.375 0.0625 C8.375 0.3925 8.375 0.7225 8.375 1.0625 C7.27800781 1.08828125 6.18101562 1.1140625 5.05078125 1.140625 C3.59631552 1.1969269 2.14188997 1.25427377 0.6875 1.3125 C-0.03373047 1.32667969 -0.75496094 1.34085937 -1.49804688 1.35546875 C-6.42127744 1.5802738 -8.98177155 2.46957253 -12.625 6.0625 C-10.10856753 -0.94756188 -6.88683168 -0.07266949 0 0 Z " fill="#2A96E6" transform="translate(462.625,500.9375)"/>
</svg>
