<?xml version="1.0" encoding="UTF-8"?>
<svg version="1.1" xmlns="http://www.w3.org/2000/svg" width="512" height="512">
<path d="M0 0 C1.48002026 -0.00445921 2.96003814 -0.00977549 4.44005257 -0.01586872 C8.48536261 -0.02997758 12.53059555 -0.03171337 16.57592666 -0.03127182 C20.94767761 -0.03292637 25.31939739 -0.04600486 29.69113159 -0.0574646 C39.24109696 -0.0802658 48.79104003 -0.08823016 58.34102893 -0.09329104 C64.31161563 -0.09655417 70.28219593 -0.1030804 76.25277901 -0.11029243 C92.80508815 -0.12985307 109.35739135 -0.14626007 125.90971279 -0.14916897 C126.96792195 -0.14935654 128.02613111 -0.14954411 129.11640722 -0.14973736 C131.26137896 -0.1501036 133.40635071 -0.1504673 135.55132245 -0.15082847 C136.61599508 -0.15101128 137.68066771 -0.1511941 138.77760315 -0.15138245 C140.37657676 -0.15165327 140.37657676 -0.15165327 142.00785286 -0.15192956 C159.26652963 -0.15546847 176.52508142 -0.18247557 193.78371488 -0.21988034 C211.53097463 -0.25803415 229.27817249 -0.27732697 247.02547413 -0.27762848 C256.97856708 -0.27821151 266.93151096 -0.28660317 276.88456535 -0.31562614 C285.36245156 -0.34023498 293.84013434 -0.34735924 302.31804668 -0.33237862 C306.63646213 -0.32524804 310.95447666 -0.32589882 315.27284622 -0.34878922 C343.42531295 -0.48893126 368.33556864 1.81374483 390.25831604 21.27415466 C390.92862854 21.80267029 391.59894104 22.33118591 392.28956604 22.87571716 C401.09363171 29.96788117 407.54835573 39.27041715 412.63331604 49.27415466 C413.09737854 50.17895569 413.09737854 50.17895569 413.57081604 51.10203552 C418.98846354 62.31568254 420.85163774 73.02428319 420.77297974 85.40351868 C420.77831694 86.88898312 420.78538933 88.37444214 420.79402679 89.85989106 C420.81252585 93.90624503 420.80639359 97.95222983 420.79587376 101.99859834 C420.78884522 106.37637079 420.80490729 110.75407016 420.81787109 115.13182068 C420.83945581 123.69435251 420.83939836 132.25675116 420.83124555 140.81930123 C420.82493226 147.78254833 420.82609475 154.74575674 420.83251762 161.70900345 C420.83341928 162.70204128 420.83432093 163.69507912 420.83524991 164.71820901 C420.83710122 166.7359031 420.83896378 168.75359719 420.84083747 170.77129127 C420.85739684 189.6701456 420.84871277 208.56892517 420.83185189 227.467775 C420.8171584 244.73543923 420.83178173 262.0029294 420.86062206 279.27057122 C420.89005645 297.02695902 420.90097644 314.78326661 420.89143986 332.53967774 C420.89041737 334.55034326 420.88942275 336.5610088 420.88845634 338.57167435 C420.88797995 339.56080852 420.88750356 340.5499427 420.88701274 341.56905063 C420.88485385 348.5177382 420.89462471 355.46634936 420.90922737 362.41501999 C420.92679467 370.89223356 420.9265705 379.36922538 420.90387572 387.84643041 C420.89277306 392.16638325 420.88948004 396.48594603 420.90817642 400.8058815 C420.92511128 404.77001105 420.91845693 408.73341426 420.89395963 412.69749786 C420.88911817 414.12199353 420.89247614 415.54654926 420.90544707 416.9709941 C421.07106932 436.59473603 413.11368249 454.59332617 400.25831604 469.27415466 C399.71690979 469.95864685 399.17550354 470.64313904 398.61769104 471.34837341 C391.73586221 479.85043864 382.65843983 485.75123353 373.19581604 491.02415466 C372.59140686 491.37663269 371.98699768 491.72911072 371.36427307 492.0922699 C353.11552414 501.81870257 332.8857787 501.00038338 312.85213768 500.91311896 C308.48058797 500.89960997 304.10912095 500.9152298 299.73757935 500.92694092 C291.19955687 500.94522067 282.66176482 500.93687087 274.12374977 500.91885269 C267.18019755 500.90477061 260.23670745 500.90094588 253.29314232 500.90429497 C252.30120615 500.90477241 251.30926998 500.90524985 250.28727513 500.90574176 C248.27159596 500.90676819 246.25591681 500.90782355 244.24023768 500.90890753 C226.45853893 500.91745468 208.67695076 500.90086277 190.89527893 500.87107849 C173.67355203 500.84223287 156.45198431 500.83516635 139.23023987 500.85057068 C120.43442193 500.86736016 101.63867938 500.87134008 82.84285945 500.85386032 C80.83592046 500.8520161 78.82898147 500.85018137 76.82204247 500.84835625 C75.34120716 500.84698811 75.34120716 500.84698811 73.83045599 500.84559234 C66.90022071 500.84000502 59.97002246 500.8432771 53.0397892 500.8499012 C44.58728444 500.85766034 36.13493592 500.85078889 27.68246249 500.82572616 C23.37657885 500.81329227 19.07093768 500.80700978 14.76504517 500.81826782 C10.81289997 500.82840536 6.86123541 500.81965156 2.90914806 500.79668664 C1.49020245 500.79158308 0.07121275 500.79298659 -1.3477129 500.80208129 C-22.21707722 500.92457249 -39.75818124 493.96125576 -56.74168396 482.27415466 C-57.53574646 481.73017029 -58.32980896 481.18618591 -59.14793396 480.62571716 C-59.67387146 480.17970154 -60.19980896 479.73368591 -60.74168396 479.27415466 C-60.74168396 478.61415466 -60.74168396 477.95415466 -60.74168396 477.27415466 C-61.31402771 477.03309998 -61.88637146 476.79204529 -62.47605896 476.54368591 C-75.16551236 469.43321633 -83.830337 450.86389549 -87.89793396 437.46556091 C-90.04485455 429.76025167 -91.86331915 422.30014494 -91.87311172 414.26786137 C-91.87695287 413.08081106 -91.88079401 411.89376076 -91.88475156 410.67073923 C-91.88388508 409.37552566 -91.88301859 408.08031208 -91.88212585 406.74584961 C-91.88471129 405.34892871 -91.88772495 403.95200855 -91.89112926 402.55508941 C-91.89918185 398.72106589 -91.90098786 394.88706111 -91.90172672 391.05303013 C-91.90358037 386.91579064 -91.9111294 382.7785608 -91.91786194 378.6413269 C-91.93143461 369.59551032 -91.93746865 360.54969818 -91.9418726 351.50387311 C-91.94463749 345.85161003 -91.94887535 340.19934865 -91.95337677 334.54708672 C-91.9655693 318.88708001 -91.97586783 303.22707468 -91.97925186 287.56706333 C-91.97947143 286.56505966 -91.97969099 285.563056 -91.97991721 284.53068858 C-91.98013549 283.52632675 -91.98035377 282.52196493 -91.98057866 281.48716789 C-91.98102212 279.45205216 -91.98146869 277.41693642 -91.98191833 275.38182068 C-91.98213976 274.37233932 -91.98236119 273.36285797 -91.98258933 272.32278626 C-91.98653414 255.97943515 -92.00397855 239.6361287 -92.02727786 223.29279483 C-92.05102472 206.49941639 -92.06345527 189.70606033 -92.06461978 172.91266483 C-92.0655348 163.48952771 -92.07124322 154.06644876 -92.08943939 144.64332771 C-92.10488561 136.61615282 -92.10993436 128.58905407 -92.10170129 120.56186713 C-92.0978104 116.47089645 -92.09864736 112.38007891 -92.11275864 108.28912735 C-92.12559229 104.53398485 -92.1242182 100.77910905 -92.11216792 97.02396642 C-92.10931729 95.04305371 -92.12107468 93.06213597 -92.13358998 91.08126074 C-91.99451251 65.53345393 -81.87434933 43.0007237 -64.25340271 24.68821716 C-46.42062523 7.51591293 -24.45258071 -0.04670805 0 0 Z " fill="#00005B" transform="translate(91.74168395996094,5.7258453369140625)"/>
<path d="M0 0 C59.4253232 -1.06233664 59.4253232 -1.06233664 84.29492188 16.10742188 C85.08125 16.64882812 85.86757812 17.19023437 86.67773438 17.74804688 C90.73232901 20.65831341 90.73232901 20.65831341 92.29492188 22.10742188 C92.29492188 22.76742187 92.29492188 23.42742187 92.29492188 24.10742188 C93.14763672 24.41679687 93.14763672 24.41679687 94.01757812 24.73242188 C97.10137615 26.59433766 98.77517457 29.16630866 100.73242188 32.10742188 C101.1271167 32.69628174 101.52181152 33.2851416 101.9284668 33.8918457 C103.06895065 35.61934676 104.18693962 37.35893624 105.29492188 39.10742188 C105.80796875 39.91566406 106.32101562 40.72390625 106.84960938 41.55664062 C116.30347028 58.37981546 116.81860955 80.9854554 112.05932617 99.27636719 C108.75595322 110.92414689 104.0717411 119.79695418 96.29492188 129.10742188 C95.75222656 129.76484375 95.20953125 130.42226563 94.65039062 131.09960938 C80.41349682 146.74217118 56.77444288 153.9257314 36.29492188 155.10742188 C29.9212873 155.26173213 23.54472745 155.20211173 17.16992188 155.16992188 C15.432944 155.16489702 13.69596471 155.16033586 11.95898438 155.15625 C7.737595 155.14532202 3.51627423 155.12811166 -0.70507812 155.10742188 C-0.70285751 155.9821666 -0.7006369 156.85691132 -0.698349 157.75816345 C-0.67834835 165.98417534 -0.66310515 174.21017911 -0.65326595 182.43620968 C-0.64803757 186.66573559 -0.64094073 190.89524148 -0.62963867 195.12475586 C-0.61880821 199.2031073 -0.61280096 203.28143944 -0.61020088 207.35980415 C-0.60834692 208.91919827 -0.60472685 210.47859128 -0.59934807 212.03797722 C-0.59213551 214.21471349 -0.59108727 216.39136902 -0.59155273 218.56811523 C-0.58933212 219.8094371 -0.58711151 221.05075897 -0.58482361 222.32969666 C-0.70507812 225.10742188 -0.70507812 225.10742188 -1.70507812 226.10742188 C-3.14797599 226.20038003 -4.59537597 226.224887 -6.04125977 226.22094727 C-7.42257835 226.22083397 -7.42257835 226.22083397 -8.83180237 226.22071838 C-9.83283493 226.2155571 -10.83386749 226.21039581 -11.86523438 226.20507812 C-12.88483749 226.20366318 -13.90444061 226.20224823 -14.9549408 226.20079041 C-18.2258492 226.19517284 -21.49669026 226.18261738 -24.76757812 226.16992188 C-26.97916568 226.16490914 -29.19075431 226.16034584 -31.40234375 226.15625 C-36.83661169 226.14519771 -42.2708401 226.12844251 -47.70507812 226.10742188 C-47.72786835 197.58816953 -47.74557623 169.06891832 -47.75614345 140.54965866 C-47.75739423 137.18618193 -47.75868855 133.82270522 -47.76000977 130.45922852 C-47.76027208 129.78959312 -47.76053439 129.11995772 -47.76080465 128.43003034 C-47.76516136 117.57340518 -47.77304892 106.7167853 -47.78223092 95.86016328 C-47.79156742 84.72840701 -47.79705883 73.59665256 -47.79916662 62.46489233 C-47.80047415 56.20893584 -47.80356264 49.95299132 -47.81080818 43.69703865 C-47.81756452 37.81617224 -47.81969588 31.93532281 -47.81818581 26.0544529 C-47.81846231 23.88920754 -47.82046971 21.72396165 -47.8242836 19.55871964 C-47.82921482 16.61631935 -47.82807854 13.67398425 -47.82533264 10.73158264 C-47.82824548 9.86292306 -47.83115832 8.99426349 -47.83415943 8.09928089 C-47.81919934 2.22154309 -47.81919934 2.22154309 -46.70507812 1.10742188 C-44.1678282 0.94516599 -41.65562185 0.84708782 -39.11523438 0.79101562 C-38.32058777 0.77000793 -37.52594116 0.74900024 -36.70721436 0.72735596 C-34.06077951 0.66003431 -31.41426596 0.60138997 -28.76757812 0.54492188 C-27.4057692 0.51514755 -27.4057692 0.51514755 -26.01644897 0.48477173 C-20.22563195 0.36086234 -14.43463888 0.25436674 -8.64331055 0.1574707 C-5.76213436 0.10839375 -2.88108049 0.05436938 0 0 Z " fill="#9898FE" transform="translate(169.705078125,132.892578125)"/>
<path d="M0 0 C1.57300328 1.57300328 1.12725504 3.13684045 1.12939453 5.3203125 C1.13254669 6.23796387 1.13569885 7.15561523 1.13894653 8.10107422 C1.13591019 9.59791748 1.13591019 9.59791748 1.1328125 11.125 C1.13376923 12.14223145 1.13472595 13.15946289 1.13571167 14.20751953 C1.13639361 16.36295636 1.13453835 18.51839522 1.13037109 20.67382812 C1.12502305 23.98572371 1.13031563 27.29748367 1.13671875 30.609375 C1.13605797 32.69791697 1.13477681 34.78645885 1.1328125 36.875 C1.13483673 37.87289551 1.13686096 38.87079102 1.13894653 39.89892578 C1.13421829 41.27540283 1.13421829 41.27540283 1.12939453 42.6796875 C1.12859894 43.49163574 1.12780334 44.30358398 1.12698364 45.14013672 C1 47 1 47 0 48 C-1.99294823 48.09581482 -3.986456 48.18483227 -5.98095703 48.23950195 C-22.63599386 48.72213967 -39.36278632 51.77208974 -53 62 C-54.18307339 64.36614679 -54.13735978 65.81439496 -54.15821838 68.45449829 C-54.17290161 69.85957893 -54.17290161 69.85957893 -54.18788147 71.29304504 C-54.19363693 72.32378647 -54.1993924 73.35452789 -54.20532227 74.41650391 C-54.21522186 75.49944229 -54.22512146 76.58238068 -54.23532104 77.69813538 C-54.26700235 81.2909219 -54.29171968 84.88372166 -54.31640625 88.4765625 C-54.33697005 90.96235505 -54.35796636 93.44814406 -54.37937927 95.93392944 C-54.42900377 101.81643106 -54.4742537 107.69895371 -54.51740164 113.58150613 C-54.57160235 120.93458269 -54.63256407 128.28760052 -54.69335938 135.640625 C-54.80101336 148.76037674 -54.9026301 161.88016811 -55 175 C-61.6752034 175.02526945 -68.35039457 175.04283268 -75.02563477 175.05493164 C-77.29842591 175.05997325 -79.5712138 175.06680637 -81.84399414 175.07543945 C-85.10303551 175.08751261 -88.36203417 175.09322987 -91.62109375 175.09765625 C-92.64400009 175.10281754 -93.66690643 175.10797882 -94.72080994 175.11329651 C-95.66170975 175.11337204 -96.60260956 175.11344757 -97.57202148 175.11352539 C-98.40475082 175.115746 -99.23748016 175.11796661 -100.09544373 175.12025452 C-102 175 -102 175 -103 174 C-103.1092789 171.81072047 -103.14692785 169.61786418 -103.15821838 167.42588806 C-103.16315636 166.73082974 -103.16809434 166.03577141 -103.17318195 165.31965071 C-103.18863024 162.9734383 -103.19693727 160.62725339 -103.20532227 158.28100586 C-103.21489504 156.60600031 -103.22490476 154.93099722 -103.23532104 153.2559967 C-103.26244129 148.69423353 -103.28341217 144.13245993 -103.30332303 139.57066035 C-103.32513883 134.80868918 -103.352549 130.04675038 -103.37937927 125.2848053 C-103.42936594 116.26086782 -103.47428252 107.23691242 -103.51740164 98.2129398 C-103.56672307 87.94223214 -103.62166003 77.67155696 -103.67708123 67.40088069 C-103.79099294 46.26728403 -103.89781187 25.13365639 -104 4 C-98.21593031 3.92589885 -92.43213629 3.87142115 -86.64770508 3.83520508 C-84.67955717 3.82010918 -82.71144294 3.79963052 -80.7434082 3.77368164 C-77.91609388 3.73733351 -75.0892239 3.72028186 -72.26171875 3.70703125 C-70.93970711 3.68380547 -70.93970711 3.68380547 -69.59098816 3.66011047 C-68.77036392 3.65988388 -67.94973969 3.65965729 -67.10424805 3.65942383 C-66.38254929 3.65276199 -65.66085052 3.64610016 -64.9172821 3.63923645 C-62.39595856 4.11365888 -61.55872408 4.99205322 -60 7 C-57.83751891 13.37362848 -57.77873542 19.31289266 -58 26 C-57.54625 25.505 -57.0925 25.01 -56.625 24.5 C-55 23 -55 23 -53 23 C-53 22.34 -53 21.68 -53 21 C-38.60206498 7.91749094 -19.85036164 -1.44830965 0 0 Z " fill="#9898FE" transform="translate(416,184)"/>
<path d="M0 0 C10.45437209 0.00169005 19.98533392 0.57782243 29.86071777 4.31942749 C30.82622559 4.68165405 31.7917334 5.04388062 32.78649902 5.41708374 C40.80272591 8.92047179 45.87597365 14.35694388 49.29821777 22.38192749 C52.47030552 32.22633775 52.27318526 43.8760785 47.86071777 53.31942749 C43.14963797 61.72991291 35.57792182 67.03415491 26.37634277 69.66317749 C25.54618652 69.87973999 24.71603027 70.09630249 23.86071777 70.31942749 C22.94806152 70.59786499 22.03540527 70.87630249 21.09509277 71.16317749 C9.13283198 74.34525672 -3.84709341 74.18887821 -16.13928223 73.31942749 C-18.01988719 71.43882253 -17.26709221 68.20584605 -17.26867676 65.70419312 C-17.27042908 65.01314987 -17.2721814 64.32210663 -17.27398682 63.61012268 C-17.27840477 61.31528242 -17.27546756 59.0205186 -17.27209473 56.72567749 C-17.27276778 55.13766464 -17.27373782 53.5496519 -17.2749939 51.9616394 C-17.27647079 48.62923199 -17.27431659 45.29685133 -17.26965332 41.96444702 C-17.26395603 37.68344239 -17.26723508 33.40250044 -17.27322578 29.12149811 C-17.27683162 25.84109013 -17.27569271 22.56069712 -17.27309799 19.2802887 C-17.27242879 17.70135999 -17.27325692 16.12242995 -17.27557755 14.54350281 C-17.27810445 12.34051896 -17.27426298 10.137638 -17.26867676 7.93466187 C-17.26788116 6.67859131 -17.26708557 5.42252075 -17.26626587 4.12838745 C-16.95497432 -2.75758209 -5.47757256 0.01827145 0 0 Z " fill="#01015C" transform="translate(186.1392822265625,174.68057250976563)"/>
</svg>
