<?xml version="1.0" encoding="UTF-8"?>
<svg version="1.1" xmlns="http://www.w3.org/2000/svg" width="512" height="512">
<path d="M0 0 C3.781878 0.011262 7.56369867 -0.0008821 11.34557295 -0.00984204 C18.72505086 -0.02367286 26.104356 -0.01629501 33.48382547 -0.00116646 C42.09838923 0.01581296 50.71291138 0.0124686 59.32748672 0.00873946 C74.70718698 0.00287986 90.08680501 0.01695937 105.46648359 0.04168689 C120.35323366 0.06561879 135.23987398 0.07268217 150.12663984 0.06219471 C166.38628638 0.05076039 182.64588235 0.04888512 198.90552831 0.0632928 C200.64227485 0.06481846 202.3790214 0.06633882 204.11576796 0.06785381 C205.39714484 0.06899053 205.39714484 0.06899053 206.70440812 0.07015022 C212.6943851 0.07487234 218.68433932 0.07305652 224.67431593 0.06878841 C231.98126499 0.06383898 239.28811076 0.06994732 246.5950363 0.08968271 C250.3155965 0.09948752 254.03600013 0.10473437 257.75656843 0.09679019 C275.53155606 0.06285219 292.35808868 0.18640359 309.16081953 6.69573963 C309.95222334 6.99617176 310.74362715 7.29660388 311.55901289 7.60614002 C323.10620956 12.13758408 333.15236254 18.36968572 342.53581953 26.50823963 C343.34406172 27.17210681 344.15230391 27.835974 344.98503828 28.51995838 C358.96639113 40.39423136 368.85403011 55.83659441 375.34831953 72.88323963 C375.62643476 73.60084461 375.90455 74.31844959 376.19109297 75.05780017 C382.25016148 91.86415067 381.9752946 108.88903143 381.92799354 126.50815761 C381.9211388 130.29282824 381.93171573 134.07745905 381.9399333 137.86212146 C381.95320505 145.25548532 381.95042235 152.64875731 381.94169538 160.04212463 C381.93489324 166.05610579 381.93401299 172.07006138 381.93726683 178.08404529 C381.93772653 178.94317059 381.93818622 179.80229589 381.93865985 180.6874553 C381.93961912 182.43328306 381.94059177 184.17911081 381.94157763 185.92493856 C381.95011231 202.25814533 381.94032766 218.59130141 381.92417653 234.92449987 C381.9107751 248.90946973 381.91310374 262.89436486 381.92693281 276.87933338 C381.94302269 293.15799043 381.94928852 309.43660317 381.94009602 325.71526706 C381.93914047 327.45432269 381.93819736 329.19337832 381.93726683 330.93243396 C381.936804 331.78786517 381.93634117 332.64329638 381.93586432 333.52464974 C381.93328464 339.5246024 381.93762327 345.52452671 381.94470549 351.52447498 C381.95315868 358.84615361 381.95076067 366.16773588 381.93486325 373.48940361 C381.92703155 377.21804146 381.92380065 380.94651921 381.93381071 384.67515552 C381.97761941 402.47160863 381.86567945 419.30979649 375.34831953 436.13323963 C375.0478874 436.92464344 374.74745527 437.71604724 374.43791914 438.53143299 C369.90647508 450.07862965 363.67437344 460.12478263 355.53581953 469.50823963 C354.87195234 470.31648181 354.20808516 471.124724 353.52410078 471.95745838 C341.64982779 485.93881123 326.20746475 495.8264502 309.16081953 502.32073963 C308.44321455 502.59885486 307.72560957 502.8769701 306.98625898 503.16351306 C290.17990848 509.22258157 273.15502773 508.94771469 255.53590155 508.90041363 C251.75123092 508.8935589 247.96660011 508.90413582 244.18193769 508.9123534 C236.78857383 508.92562515 229.39530184 508.92284245 222.00193453 508.91411547 C215.98795337 508.90731333 209.97399778 508.90643309 203.96001387 508.90968692 C203.10088856 508.91014662 202.24176326 508.91060632 201.35660386 508.91107995 C199.6107761 508.91203922 197.86494834 508.91301186 196.1191206 508.91399772 C179.78591383 508.92253241 163.45275774 508.91274775 147.11955929 508.89659663 C133.13458943 508.8831952 119.1496943 508.88552383 105.16472578 508.89935291 C88.88606873 508.91544279 72.60745599 508.92170861 56.3287921 508.91251612 C54.58973647 508.91156057 52.85068083 508.91061745 51.11162519 508.90968692 C50.25619399 508.9092241 49.40076278 508.90876127 48.51940942 508.90828442 C42.51945676 508.90570474 36.51953244 508.91004337 30.51958418 508.91712558 C23.19790555 508.92557878 15.87632328 508.92318076 8.55465555 508.90728335 C4.8260177 508.89945164 1.09753995 508.89622075 -2.63109636 508.90623081 C-20.42754947 508.95003951 -37.26573733 508.83809955 -54.08918047 502.32073963 C-54.88058428 502.0203075 -55.67198809 501.71987537 -56.48737383 501.41033924 C-68.0345705 496.87889517 -78.08072348 490.64679354 -87.46418047 482.50823963 C-88.27242266 481.84437244 -89.08066484 481.18050525 -89.91339922 480.49652088 C-99.89163947 472.02206566 -107.35629105 461.75977995 -114.02668047 450.57073963 C-114.44433672 449.87335681 -114.86199297 449.175974 -115.29230547 448.45745838 C-117.72764583 444.2340442 -119.27060336 440.27107136 -120.46418047 435.50823963 C-120.93396459 434.19235216 -121.41198929 432.87934938 -121.90168047 431.57073963 C-127.11927059 415.4428817 -126.9068319 399.34210201 -126.87101352 382.56695783 C-126.86623722 378.79038509 -126.87883077 375.0138611 -126.88903093 371.23730457 C-126.90613855 363.85864661 -126.90707564 356.4800741 -126.90181803 349.10140148 C-126.89775953 343.09698826 -126.89923972 337.09260009 -126.90456629 331.08818805 C-126.90531471 330.23021764 -126.90606313 329.37224723 -126.90683423 328.48827772 C-126.90836588 326.74471288 -126.90990423 325.00114805 -126.9114492 323.25758323 C-126.92514552 306.94333424 -126.91975709 290.62913334 -126.90826399 274.31488547 C-126.89833767 259.43048915 -126.91126701 244.54621725 -126.93519818 229.66184011 C-126.95965476 214.3337359 -126.9691808 199.00568948 -126.96254545 183.67756617 C-126.95906737 175.08998214 -126.96119121 166.50249365 -126.97879648 157.9149245 C-126.99360095 150.60358814 -126.99404743 143.29241461 -126.97672557 135.98108116 C-126.96827982 132.26000071 -126.96590571 128.53921009 -126.98137712 124.81814563 C-127.05751544 105.09290033 -126.66244768 85.72300951 -118.21418047 67.50823963 C-117.82141924 66.63288562 -117.42865801 65.75753162 -117.02399492 64.85565174 C-113.82325363 57.90427342 -110.19585576 51.54405157 -105.46418047 45.50823963 C-105.0326668 44.95619861 -104.60115313 44.4041576 -104.15656328 43.83538806 C-77.13853759 9.7103243 -42.22852406 -0.17557748 0 0 Z " fill="#A6F074" transform="translate(128.46418046951294,1.4917603731155396)"/>
<path d="M0 0 C1.17370651 -0.00101212 1.17370651 -0.00101212 2.37112427 -0.00204468 C23.23659924 0.02629112 43.37936529 2.16782361 63.55371094 7.65332031 C65.51145269 8.18519235 67.47791656 8.68471897 69.4453125 9.1796875 C85.94830679 13.6732739 102.52147565 24.38945007 111.51171875 39.140625 C117.50008256 50.45036779 119.67714505 62.24773871 116.5625 74.8125 C111.74942222 90.32863203 101.6539856 100.81460573 88.75 110.25 C87.99589844 110.80816406 87.24179687 111.36632812 86.46484375 111.94140625 C66.49712751 126.30882812 66.49712751 126.30882812 55.33203125 130.24609375 C51.23154879 131.84038118 47.37044665 133.91448666 43.48193359 135.96557617 C40.68017051 137.41475032 38.95581659 138.25 35.75 138.25 C35.75 138.91 35.75 139.57 35.75 140.25 C35.06550781 140.51554688 34.38101563 140.78109375 33.67578125 141.0546875 C22.72056118 145.53038488 12.15112155 150.99133281 1.59423828 156.32421875 C-0.09987499 157.17463939 -1.80155382 158.00994473 -3.50390625 158.84375 C-9.80311889 161.93176037 -15.85157631 165.2919006 -21.8515625 168.9296875 C-24.25 170.25 -24.25 170.25 -26.25 170.25 C-26.25 170.91 -26.25 171.57 -26.25 172.25 C-27.79287884 173.29174694 -29.38800326 174.2562759 -31 175.1875 C-45.33663044 184.09246891 -55.87020208 196.11060623 -61.25 212.25 C-61.32051114 214.98865287 -61.34357765 217.70027588 -61.3125 220.4375 C-61.30798828 221.18708984 -61.30347656 221.93667969 -61.29882812 222.70898438 C-61.28706354 224.55602383 -61.26912865 226.40302213 -61.25 228.25 C-60.59 228.25 -59.93 228.25 -59.25 228.25 C-58.71375 229.44625 -58.1775 230.6425 -57.625 231.875 C-54.95999241 237.10322669 -52.23450903 241.06602561 -46.640625 243.28515625 C-44.18912152 244.02960999 -41.74884822 244.68701838 -39.25 245.25 C-39.25 245.91 -39.25 246.57 -39.25 247.25 C-17.27583433 246.80382405 -0.06066747 242.93266735 17.078125 228.5 C18.75 227.25 18.75 227.25 20.75 227.25 C20.75 226.59 20.75 225.93 20.75 225.25 C22.11328125 223.9453125 22.11328125 223.9453125 24.0625 222.375 C46.48731997 203.17620676 61.62034508 176.56269087 76.01831055 151.25048828 C78.10855893 147.62872702 80.27746172 144.05933235 82.47875977 140.50415039 C84.25791989 137.34936157 85.54583542 134.06589994 86.79296875 130.671875 C87.93287626 127.78721109 89.36286807 125.02426386 90.75 122.25 C97.68 122.25 104.61 122.25 111.75 122.25 C111.75 182.97 111.75 243.69 111.75 306.25 C82.38 306.25 53.01 306.25 22.75 306.25 C24.11458644 299.42706782 25.29249657 294.16062891 28.125 288.0625 C28.46515137 287.31419922 28.80530273 286.56589844 29.15576172 285.79492188 C35.18012738 272.7655415 41.82382497 259.95095348 49.28076172 247.68457031 C51.68033867 243.70840192 53.95944569 239.66462599 56.25 235.625 C59.5269778 229.85347471 62.8261966 224.09906805 66.21875 218.39453125 C83.49777512 193.15992169 83.49777512 193.15992169 92.75 165.25 C90.10261084 163.7893715 88.85551666 163.25 85.75 163.25 C85.33621094 164.2503125 84.92242187 165.250625 84.49609375 166.28125 C82.8063117 170.22176227 80.85222873 173.98135835 78.8125 177.75 C78.47798828 178.37519531 78.14347656 179.00039063 77.79882812 179.64453125 C76.09533849 182.81518826 74.3500958 185.9535914 72.54296875 189.06640625 C71.11473739 191.60237261 70.20276299 193.42023132 69.75 196.25 C69.09 196.25 68.43 196.25 67.75 196.25 C67.51410156 197.25933594 67.27820313 198.26867187 67.03515625 199.30859375 C65.82152611 203.53771784 63.70582162 206.74523562 61.1875 210.3125 C60.28270475 211.62941936 59.37908525 212.94714719 58.4765625 214.265625 C58.02055664 214.92755859 57.56455078 215.58949219 57.09472656 216.27148438 C55.01812103 219.3268241 53.04191069 222.44370232 51.0625 225.5625 C48.36112278 229.78303117 45.63246818 233.98244343 42.8125 238.125 C42.26722656 238.92679688 41.72195313 239.72859375 41.16015625 240.5546875 C40.69480469 241.11414063 40.22945312 241.67359375 39.75 242.25 C39.09 242.25 38.43 242.25 37.75 242.25 C37.63245361 242.84820557 37.51490723 243.44641113 37.39379883 244.06274414 C36.35905576 247.5782023 33.8246422 249.99518126 31.4375 252.6875 C30.90205566 253.30004639 30.36661133 253.91259277 29.81494141 254.54370117 C28.13632704 256.45465226 26.44532513 258.35386747 24.75 260.25 C24.22841309 260.83620117 23.70682617 261.42240234 23.16943359 262.02636719 C7.02758834 280.09659472 -11.42520944 295.51630875 -34.25 304.25 C-35.36632812 304.68441406 -36.48265625 305.11882812 -37.6328125 305.56640625 C-58.98583879 313.5678199 -81.35642781 315.40974503 -103.25 308.25 C-103.89759277 308.04632813 -104.54518555 307.84265625 -105.21240234 307.6328125 C-123.07619637 301.85216904 -136.52496556 289.67627773 -145.34521484 273.11865234 C-155.64925662 251.83771986 -153.61597628 226.09216579 -146.25 204.25 C-144.85023903 201.03249389 -143.19541131 198.16540748 -141.25 195.25 C-140.73566406 194.45335937 -140.22132813 193.65671875 -139.69140625 192.8359375 C-120.62372068 164.38853594 -88.8001218 147.79678713 -57.50341797 136.09521484 C-55.40213272 135.30706213 -53.31148782 134.49626391 -51.22265625 133.67578125 C-41.20926679 129.77661656 -31.0029601 126.54040618 -20.74755859 123.34375 C-16.67910439 122.07147059 -12.61489372 120.7860642 -8.55078125 119.5 C-6.22190548 118.76413819 -3.89292093 118.02862209 -1.56387329 117.29330444 C-0.04515395 116.81363823 1.47342583 116.33352988 2.99185181 115.85293579 C10.31996954 113.53512653 17.6446086 111.25798718 25.05078125 109.19921875 C31.48743048 107.38284546 37.70165575 105.15883634 43.9375 102.75 C45.93078446 101.9890458 47.92427307 101.22862615 49.91796875 100.46875 C50.88476562 100.09717773 51.8515625 99.72560547 52.84765625 99.34277344 C55.72120336 98.26084234 58.61305365 97.24671786 61.51171875 96.234375 C66.10604383 94.56924581 70.22773369 92.57355733 74.375 90 C75.00889648 89.61158936 75.64279297 89.22317871 76.29589844 88.82299805 C87.29006559 81.96092844 87.29006559 81.96092844 93.75 71.25 C94.6498864 63.58654905 94.6498864 63.58654905 92.07421875 56.57421875 C89.55477393 54.05477393 87.32724682 52.67120361 84.125 51.125 C82.68253906 50.40957031 82.68253906 50.40957031 81.2109375 49.6796875 C80.06882812 49.20789063 78.92671875 48.73609375 77.75 48.25 C77.11118896 47.97567139 76.47237793 47.70134277 75.81420898 47.41870117 C66.91504489 44.14538948 57.40594126 44.74650077 48.0625 44.8125 C47.14482849 44.81587372 46.22715698 44.81924744 45.28167725 44.82272339 C31.05330386 44.89861591 17.60282867 45.82647351 3.75 49.25 C2.17968018 49.61206543 2.17968018 49.61206543 0.57763672 49.98144531 C-15.89733164 53.78501721 -31.56947535 58.95843147 -47.25 65.25 C-48.55372559 65.76264404 -48.55372559 65.76264404 -49.88378906 66.28564453 C-54.95995111 68.28817601 -59.94484608 70.41170221 -64.875 72.75 C-65.51816162 73.05260742 -66.16132324 73.35521484 -66.82397461 73.66699219 C-72.48176487 76.3380704 -78.07071524 79.12000049 -83.625 82 C-86.25 83.25 -86.25 83.25 -88.25 83.25 C-88.25 83.91 -88.25 84.57 -88.25 85.25 C-89.28898437 85.83007812 -90.32796875 86.41015625 -91.3984375 87.0078125 C-107.0054387 95.57235592 -107.0054387 95.57235592 -121.4375 105.9296875 C-123.25 107.25 -123.25 107.25 -125.25 107.25 C-125.25 78.87 -125.25 50.49 -125.25 21.25 C-120.46133848 19.19771649 -116.36676924 17.60229559 -111.42578125 16.27734375 C-110.79826462 16.10876358 -110.17074799 15.94018341 -109.5242157 15.76649475 C-108.20474546 15.41358069 -106.88456727 15.06330363 -105.5637207 14.71557617 C-103.58254662 14.19278984 -101.60472413 13.65854444 -99.62695312 13.12304688 C-92.71731161 11.27477018 -85.84519691 9.72752516 -78.77319336 8.6418457 C-75.77619823 8.17641975 -72.83460588 7.53527953 -69.875 6.875 C-62.0273259 5.28106826 -54.12193552 4.19123475 -46.1875 3.125 C-44.93340332 2.95436035 -43.67930664 2.7837207 -42.38720703 2.60791016 C-28.25607605 0.75122476 -14.23625747 0.01117282 0 0 Z " fill="#010201" transform="translate(268.25,99.75)"/>
<path d="" fill="#A7F175" transform="translate(0,0)"/>
</svg>
