<?xml version="1.0" encoding="UTF-8"?>
<svg version="1.1" xmlns="http://www.w3.org/2000/svg" width="512" height="512">
<path d="M0 0 C1.84990436 -0.00551503 1.84990436 -0.00551503 3.73718053 -0.01114148 C7.14884469 -0.02023317 10.56046089 -0.02487028 13.97213256 -0.02753079 C17.65682392 -0.03144875 21.34150154 -0.04102619 25.02618408 -0.04974365 C33.92073231 -0.06946911 42.81528161 -0.07957063 51.70984623 -0.08847144 C55.90672677 -0.09286196 60.10360606 -0.09822689 64.30048561 -0.10346031 C78.26715298 -0.12047091 92.23381959 -0.13496168 106.20049572 -0.14220905 C109.82167754 -0.14411871 113.44285935 -0.14603907 117.06404114 -0.147995 C117.96398331 -0.14847874 118.86392548 -0.14896248 119.79113863 -0.14946087 C134.3463059 -0.15774848 148.90139065 -0.18306465 163.45652195 -0.21557567 C178.42724605 -0.24874001 193.39792836 -0.26666637 208.36868936 -0.26985329 C216.76303846 -0.27201006 225.15726733 -0.28063533 233.55158043 -0.30631447 C240.70574913 -0.32815022 247.85976839 -0.33600936 255.01396664 -0.32634769 C258.65601412 -0.32183949 262.29775412 -0.32348237 265.9397583 -0.34310913 C303.08519925 -0.53193598 335.44422322 7.71363188 362.56428528 34.45967102 C389.1386472 61.47333445 396.24526273 93.7348836 396.14395928 130.47074509 C396.13710171 134.15725568 396.14768284 137.84372549 396.15589905 141.53022766 C396.16916785 148.73108457 396.16638944 155.93184714 396.15766113 163.1327076 C396.1508578 168.99031975 396.14997924 174.84790565 396.15323257 180.70552063 C396.15369227 181.54244304 396.15415197 182.37936545 396.1546256 183.24164915 C396.15558488 184.94238091 396.15655752 186.64311267 396.15754338 188.34384441 C396.16607719 204.25357072 396.15629478 220.16324499 396.14014228 236.07296276 C396.12674093 249.69407905 396.12906959 263.31511861 396.14289856 276.93623352 C396.15898999 292.7929892 396.16525341 308.64969939 396.15606177 324.5064621 C396.15510622 326.20058186 396.15416311 327.89470163 396.15323257 329.58882141 C396.15276975 330.42213974 396.15230692 331.25545806 396.15183007 332.11402845 C396.14925085 337.95768809 396.15358801 343.80131863 396.16067123 349.64497375 C396.16912616 356.77634477 396.16672285 363.90761684 396.150829 371.03897667 C396.14299957 374.67040316 396.13976238 378.30166531 396.14977646 381.93309021 C396.22069567 409.96026799 396.22069567 409.96026799 392.75178528 423.14717102 C392.42592469 424.38979958 392.42592469 424.38979958 392.09348106 425.65753174 C384.53332458 451.70551584 367.17933751 476.99229314 343.75178528 491.14717102 C342.69604309 491.80072571 341.6403009 492.4542804 340.55256653 493.12763977 C321.7347836 504.50173022 301.51256285 510.29787405 279.50357056 510.29434204 C277.65366619 510.29985707 277.65366619 510.29985707 275.76639003 510.30548352 C272.35472587 510.31457522 268.94310967 510.31921232 265.53143799 510.32187283 C261.84674664 510.32579079 258.16206901 510.33536823 254.47738647 510.34408569 C245.58283825 510.36381115 236.68828895 510.37391268 227.79372433 510.38281348 C223.59684379 510.387204 219.3999645 510.39256893 215.20308495 510.39780235 C201.23641758 510.41481295 187.26975097 510.42930372 173.30307484 510.43655109 C169.68189302 510.43846075 166.06071121 510.44038111 162.43952942 510.44233704 C161.53958725 510.44282078 160.63964508 510.44330452 159.71243193 510.44380292 C145.15726466 510.45209052 130.6021799 510.4774067 116.04704861 510.50991771 C101.07632451 510.54308205 86.1056422 510.56100841 71.1348812 510.56419533 C62.7405321 510.5663521 54.34630323 510.57497737 45.95199013 510.60065651 C38.79782143 510.62249226 31.64380216 510.6303514 24.48960391 510.62068973 C20.84755644 510.61618153 17.20581643 510.61782441 13.56381226 510.63745117 C-24.27322988 510.82981133 -56.0387133 502.23716213 -83.49821472 475.33467102 C-109.90350626 448.637668 -116.7405048 416.12887876 -116.64038873 379.82359695 C-116.63353116 376.13708636 -116.64411229 372.45061655 -116.65232849 368.76411438 C-116.66559729 361.56325747 -116.66281889 354.3624949 -116.65409057 347.16163445 C-116.64728725 341.30402229 -116.64640869 335.44643639 -116.64966202 329.58882141 C-116.65012172 328.751899 -116.65058142 327.91497659 -116.65105505 327.05269289 C-116.65201432 325.35196113 -116.65298696 323.65122937 -116.65397282 321.95049763 C-116.66250664 306.04077132 -116.65272422 290.13109705 -116.63657172 274.22137928 C-116.62317037 260.60026299 -116.62549903 246.97922343 -116.639328 233.35810852 C-116.65541943 217.50135284 -116.66168285 201.64464265 -116.65249121 185.78787994 C-116.65153567 184.09376018 -116.65059255 182.39964041 -116.64966202 180.70552063 C-116.64919919 179.87220231 -116.64873636 179.03888398 -116.64825951 178.18031359 C-116.64568029 172.33665395 -116.65001746 166.49302341 -116.65710068 160.64936829 C-116.6655556 153.51799728 -116.6631523 146.3867252 -116.64725845 139.25536537 C-116.63942902 135.62393888 -116.63619182 131.99267673 -116.6462059 128.36125183 C-116.71712512 100.33407406 -116.71712512 100.33407406 -113.24821472 87.14717102 C-113.03097433 86.31875198 -112.81373394 85.49033295 -112.58991051 84.6368103 C-105.02975403 58.5888262 -87.67576695 33.3020489 -64.24821472 19.14717102 C-63.19247253 18.49361633 -62.13673035 17.84006165 -61.04899597 17.16670227 C-42.23121304 5.79261182 -22.00899229 -0.00353201 0 0 Z " fill="#FEFEFE" transform="translate(116.24821472167969,0.8528289794921875)"/>
<path d="M0 0 C1.68627213 -0.00599219 3.37254153 -0.01279932 5.05880737 -0.02035522 C9.61886689 -0.03795125 14.17885124 -0.04270787 18.73894143 -0.0439868 C21.59328944 -0.04541249 24.44761859 -0.04968996 27.3019619 -0.05498123 C37.27505065 -0.07345973 47.2480861 -0.0816545 57.22119141 -0.08007812 C66.49330943 -0.07887704 75.76519456 -0.09997853 85.03725368 -0.13156545 C93.01888405 -0.15777993 101.00043858 -0.16844327 108.98211163 -0.16716731 C113.73991582 -0.16665923 118.49751281 -0.17225668 123.25527382 -0.19352341 C127.73289205 -0.21299345 132.21010726 -0.21297082 136.68774033 -0.19849014 C138.32268429 -0.19641184 139.95765408 -0.20104403 141.59255409 -0.21321106 C155.93175545 -0.31293836 168.4152109 1.97355616 179.22143555 12.10302734 C184.46191762 17.69287488 189.2878418 24.4511522 189.2878418 32.29052734 C192.58169022 30.73260047 195.87262352 29.16860534 199.1628418 27.60302734 C200.17902588 27.1205957 201.19520996 26.63816406 202.2421875 26.14111328 C208.02399433 23.38088582 213.76523299 20.55787739 219.46362305 17.63037109 C220.6336084 17.03248779 221.80359375 16.43460449 223.0090332 15.81860352 C225.29645617 14.64524801 227.57883604 13.4620018 229.85571289 12.26831055 C230.89937012 11.73423584 231.94302734 11.20016113 233.01831055 10.64990234 C233.94023193 10.17004883 234.86215332 9.69019531 235.81201172 9.19580078 C238.51681431 8.20680482 239.64386508 8.26585597 242.2878418 9.29052734 C242.38691437 13.48968042 242.45940352 17.68820986 242.50756836 21.88818359 C242.52765162 23.31603855 242.55492432 24.74381159 242.58959961 26.17138672 C242.63826849 28.22693102 242.66084147 30.2813859 242.6784668 32.33740234 C242.69941406 33.57329102 242.72036133 34.80917969 242.74194336 36.08251953 C242.19499199 39.94646631 241.35609263 40.96031434 238.2878418 43.29052734 C235.99560547 44.67163086 235.99560547 44.67163086 233.45581055 45.91943359 C232.4896582 46.39832031 231.52350586 46.87720703 230.52807617 47.37060547 C229.52067383 47.85980469 228.51327148 48.34900391 227.4753418 48.85302734 C226.54141602 49.31515625 225.60749023 49.77728516 224.64526367 50.25341797 C219.73426279 52.67217377 214.80594066 55.05002891 209.85375977 57.38305664 C196.7294197 63.58264369 183.74159467 70.03635151 170.7722168 76.55224609 C169.85636621 77.01211977 168.94051563 77.47199345 167.996912 77.94580269 C159.37500883 82.27525192 150.75485723 86.60816713 142.1394043 90.95043945 C137.3822144 93.34779962 132.62215427 95.73937301 127.86017609 98.1272068 C126.05848908 99.03207454 124.25791502 99.93916186 122.45848846 100.84851646 C119.96648378 102.10768384 117.47091014 103.35948381 114.97436523 104.60961914 C114.23582306 104.98506866 113.49728088 105.36051819 112.73635864 105.74734497 C107.6298078 108.29052734 107.6298078 108.29052734 104.2878418 108.29052734 C104.2878418 108.95052734 104.2878418 109.61052734 104.2878418 110.29052734 C105.0701416 110.52094727 105.85244141 110.75136719 106.65844727 110.98876953 C111.40732866 112.69205458 115.8382261 114.88653451 120.3581543 117.11865234 C121.36367844 117.61170868 122.36920258 118.10476501 123.40519714 118.61276245 C126.74310507 120.2512631 130.07805574 121.89568321 133.4128418 123.54052734 C135.75548943 124.69279865 138.09818234 125.84497793 140.44091797 126.99707031 C161.41578319 137.32062319 182.32946692 147.76713887 203.23168945 158.23681641 C204.14691942 158.69523296 204.14691942 158.69523296 205.08063889 159.16291046 C208.02385435 160.63742296 210.96633798 162.11337321 213.90795898 163.59106445 C218.74831985 166.02198692 223.59079926 168.44642523 228.45727539 170.82470703 C229.21050583 171.19457733 229.96373627 171.56444763 230.73979187 171.94552612 C232.07287109 172.59879204 233.40827311 173.24735383 234.74665833 173.88967896 C240.67607719 176.8022819 240.67607719 176.8022819 242.2878418 179.29052734 C242.62841797 182.38500977 242.62841797 182.38500977 242.58081055 186.14599609 C242.5765657 186.8076326 242.57232086 187.4692691 242.56794739 188.1509552 C242.55117873 190.26039644 242.51353279 192.3688758 242.4753418 194.47802734 C242.46029248 195.90965415 242.4466045 197.34129596 242.43432617 198.77294922 C242.40128209 202.27912022 242.34951347 205.78472988 242.2878418 209.29052734 C239.81683489 210.19168413 238.60729249 210.39852517 236.08067322 209.54434204 C235.28141922 209.1365451 234.48216522 208.72874817 233.65869141 208.30859375 C232.29223732 207.62260605 232.29223732 207.62260605 230.8981781 206.92276001 C229.43397179 206.16507828 229.43397179 206.16507828 227.94018555 205.39208984 C226.93194229 204.88253754 225.92369904 204.37298523 224.88490295 203.84799194 C221.65922376 202.21502706 218.44218081 200.5658284 215.2253418 198.91552734 C212.00327926 197.27581552 208.77955417 195.63942798 205.55506897 194.00448608 C203.54777021 192.98524821 201.54221031 191.96257725 199.53855896 190.93618774 C198.63074173 190.47255829 197.7229245 190.00892883 196.78759766 189.53125 C195.58991005 188.91716782 195.58991005 188.91716782 194.36802673 188.29067993 C192.1777935 187.18379857 192.1777935 187.18379857 189.2878418 186.29052734 C189.2053418 187.11552734 189.1228418 187.94052734 189.0378418 188.79052734 C187.14631305 197.6176615 181.98788606 204.34597768 175.2878418 210.29052734 C167.03331876 215.500525 158.68351625 218.53206601 148.87640381 218.55795288 C147.80714169 218.56474955 147.80714169 218.56474955 146.71627831 218.57168353 C144.34520875 218.5842692 141.9743706 218.58271096 139.60327148 218.58105469 C137.89596768 218.58704364 136.18866659 218.59385003 134.48136902 218.60140991 C129.85514488 218.61904101 125.22899478 218.62376411 120.60274029 218.62504148 C117.70854363 218.62646542 114.81436565 218.63073964 111.92017365 218.63603592 C101.81208608 218.65452751 91.70405118 218.66270773 81.59594727 218.66113281 C72.19206775 218.65993205 62.78841799 218.68102377 53.38459659 218.71262014 C45.29601682 218.7388233 37.2075119 218.7494984 29.11889005 218.74822199 C24.29457849 218.7477135 19.47047115 218.75333434 14.64620209 218.77457809 C10.10541544 218.79402836 5.5650264 218.79403881 1.02422523 218.77954483 C-0.63532534 218.77746394 -2.29490125 218.78211438 -3.95440865 218.79426575 C-18.18911005 218.89168376 -29.85749585 216.41325188 -40.6496582 206.51318359 C-50.24354551 196.40238426 -51.93315129 185.29985674 -52.00732422 171.96386719 C-52.018881 170.51487492 -52.03939116 169.06592643 -52.06884766 167.6171875 C-52.11148994 165.51842473 -52.1276825 163.42091924 -52.13793945 161.32177734 C-52.15252197 160.06945312 -52.16710449 158.81712891 -52.18212891 157.52685547 C-51.60056818 153.52209234 -50.78074765 152.85884122 -47.7121582 150.29052734 C-45.19664699 148.7633237 -42.58510297 147.46377936 -39.94604492 146.16455078 C-39.16838776 145.77382385 -38.39073059 145.38309692 -37.58950806 144.98052979 C-35.02745901 143.69581136 -32.45984782 142.42267407 -29.8918457 141.14990234 C-28.10844253 140.25939315 -26.32533493 139.36829179 -24.54251099 138.47662354 C-20.8109847 136.61242271 -17.07683594 134.7536209 -13.34057617 132.89892578 C-8.54332527 130.51732922 -3.75143969 128.12517062 1.03871346 125.72933578 C4.7172842 123.89032178 8.39792164 122.05547828 12.07928085 120.22205353 C13.84766542 119.34105004 15.61556246 118.45906729 17.3829689 117.57610321 C19.84683194 116.34633078 22.31325208 115.12185445 24.78051758 113.89892578 C25.51510193 113.53118042 26.24968628 113.16343506 27.00653076 112.7845459 C32.05888114 110.29052734 32.05888114 110.29052734 34.2878418 110.29052734 C34.2878418 109.63052734 34.2878418 108.97052734 34.2878418 108.29052734 C33.45891418 108.03774017 32.62998657 107.784953 31.77593994 107.52450562 C27.84202579 106.13281181 24.20775687 104.40570118 20.47827148 102.546875 C19.34060837 101.9854908 19.34060837 101.9854908 18.17996216 101.4127655 C15.68765472 100.18114318 13.19845086 98.94341549 10.7097168 97.70458984 C8.97430512 96.84263934 7.23889251 95.98069072 5.503479 95.1187439 C1.87406058 93.31451645 -1.75349597 91.50660048 -5.38012695 89.69677734 C-10.03095682 87.37686587 -14.68903134 85.07190788 -19.34895706 82.77033424 C-22.93198029 80.99742023 -26.50961233 79.21383688 -30.08583832 77.42725754 C-31.80149229 76.57246003 -33.51914899 75.7216701 -35.23880768 74.87495804 C-37.63838635 73.69218182 -40.02997096 72.49456912 -42.42016602 71.29296875 C-43.1329068 70.94581314 -43.84564758 70.59865753 -44.57998657 70.24098206 C-47.3033638 68.85597346 -49.37926607 67.76688804 -51.15074158 65.23194885 C-52.50326762 60.55481066 -52.0433653 55.49316662 -52.02783203 50.66577148 C-52.02469466 48.62672311 -52.04806528 46.58915977 -52.07348633 44.55029297 C-52.07709848 37.22845118 -51.72228153 31.01047505 -48.7121582 24.29052734 C-48.19975586 23.03755859 -48.19975586 23.03755859 -47.67700195 21.75927734 C-43.011683 12.81889425 -35.15329183 5.84703542 -25.7121582 2.29052734 C-17.20801381 -0.18954867 -8.77393474 -0.00623699 0 0 Z " fill="#010101" transform="translate(160.712158203125,146.70947265625)"/>
<path d="M0 0 C1.84990436 -0.00551503 1.84990436 -0.00551503 3.73718053 -0.01114148 C7.14884469 -0.02023317 10.56046089 -0.02487028 13.97213256 -0.02753079 C17.65682392 -0.03144875 21.34150154 -0.04102619 25.02618408 -0.04974365 C33.92073231 -0.06946911 42.81528161 -0.07957063 51.70984623 -0.08847144 C55.90672677 -0.09286196 60.10360606 -0.09822689 64.30048561 -0.10346031 C78.26715298 -0.12047091 92.23381959 -0.13496168 106.20049572 -0.14220905 C109.82167754 -0.14411871 113.44285935 -0.14603907 117.06404114 -0.147995 C117.96398331 -0.14847874 118.86392548 -0.14896248 119.79113863 -0.14946087 C134.3463059 -0.15774848 148.90139065 -0.18306465 163.45652195 -0.21557567 C178.42724605 -0.24874001 193.39792836 -0.26666637 208.36868936 -0.26985329 C216.76303846 -0.27201006 225.15726733 -0.28063533 233.55158043 -0.30631447 C240.70574913 -0.32815022 247.85976839 -0.33600936 255.01396664 -0.32634769 C258.65601412 -0.32183949 262.29775412 -0.32348237 265.9397583 -0.34310913 C303.08519925 -0.53193598 335.44422322 7.71363188 362.56428528 34.45967102 C389.1386472 61.47333445 396.24526273 93.7348836 396.14395928 130.47074509 C396.13710171 134.15725568 396.14768284 137.84372549 396.15589905 141.53022766 C396.16916785 148.73108457 396.16638944 155.93184714 396.15766113 163.1327076 C396.1508578 168.99031975 396.14997924 174.84790565 396.15323257 180.70552063 C396.15369227 181.54244304 396.15415197 182.37936545 396.1546256 183.24164915 C396.15558488 184.94238091 396.15655752 186.64311267 396.15754338 188.34384441 C396.16607719 204.25357072 396.15629478 220.16324499 396.14014228 236.07296276 C396.12674093 249.69407905 396.12906959 263.31511861 396.14289856 276.93623352 C396.15898999 292.7929892 396.16525341 308.64969939 396.15606177 324.5064621 C396.15510622 326.20058186 396.15416311 327.89470163 396.15323257 329.58882141 C396.15276975 330.42213974 396.15230692 331.25545806 396.15183007 332.11402845 C396.14925085 337.95768809 396.15358801 343.80131863 396.16067123 349.64497375 C396.16912616 356.77634477 396.16672285 363.90761684 396.150829 371.03897667 C396.14299957 374.67040316 396.13976238 378.30166531 396.14977646 381.93309021 C396.22069567 409.96026799 396.22069567 409.96026799 392.75178528 423.14717102 C392.42592469 424.38979958 392.42592469 424.38979958 392.09348106 425.65753174 C384.53332458 451.70551584 367.17933751 476.99229314 343.75178528 491.14717102 C342.69604309 491.80072571 341.6403009 492.4542804 340.55256653 493.12763977 C321.7347836 504.50173022 301.51256285 510.29787405 279.50357056 510.29434204 C277.65366619 510.29985707 277.65366619 510.29985707 275.76639003 510.30548352 C272.35472587 510.31457522 268.94310967 510.31921232 265.53143799 510.32187283 C261.84674664 510.32579079 258.16206901 510.33536823 254.47738647 510.34408569 C245.58283825 510.36381115 236.68828895 510.37391268 227.79372433 510.38281348 C223.59684379 510.387204 219.3999645 510.39256893 215.20308495 510.39780235 C201.23641758 510.41481295 187.26975097 510.42930372 173.30307484 510.43655109 C169.68189302 510.43846075 166.06071121 510.44038111 162.43952942 510.44233704 C161.53958725 510.44282078 160.63964508 510.44330452 159.71243193 510.44380292 C145.15726466 510.45209052 130.6021799 510.4774067 116.04704861 510.50991771 C101.07632451 510.54308205 86.1056422 510.56100841 71.1348812 510.56419533 C62.7405321 510.5663521 54.34630323 510.57497737 45.95199013 510.60065651 C38.79782143 510.62249226 31.64380216 510.6303514 24.48960391 510.62068973 C20.84755644 510.61618153 17.20581643 510.61782441 13.56381226 510.63745117 C-24.27322988 510.82981133 -56.0387133 502.23716213 -83.49821472 475.33467102 C-109.90350626 448.637668 -116.7405048 416.12887876 -116.64038873 379.82359695 C-116.63353116 376.13708636 -116.64411229 372.45061655 -116.65232849 368.76411438 C-116.66559729 361.56325747 -116.66281889 354.3624949 -116.65409057 347.16163445 C-116.64728725 341.30402229 -116.64640869 335.44643639 -116.64966202 329.58882141 C-116.65012172 328.751899 -116.65058142 327.91497659 -116.65105505 327.05269289 C-116.65201432 325.35196113 -116.65298696 323.65122937 -116.65397282 321.95049763 C-116.66250664 306.04077132 -116.65272422 290.13109705 -116.63657172 274.22137928 C-116.62317037 260.60026299 -116.62549903 246.97922343 -116.639328 233.35810852 C-116.65541943 217.50135284 -116.66168285 201.64464265 -116.65249121 185.78787994 C-116.65153567 184.09376018 -116.65059255 182.39964041 -116.64966202 180.70552063 C-116.64919919 179.87220231 -116.64873636 179.03888398 -116.64825951 178.18031359 C-116.64568029 172.33665395 -116.65001746 166.49302341 -116.65710068 160.64936829 C-116.6655556 153.51799728 -116.6631523 146.3867252 -116.64725845 139.25536537 C-116.63942902 135.62393888 -116.63619182 131.99267673 -116.6462059 128.36125183 C-116.71712512 100.33407406 -116.71712512 100.33407406 -113.24821472 87.14717102 C-113.03097433 86.31875198 -112.81373394 85.49033295 -112.58991051 84.6368103 C-105.02975403 58.5888262 -87.67576695 33.3020489 -64.24821472 19.14717102 C-63.19247253 18.49361633 -62.13673035 17.84006165 -61.04899597 17.16670227 C-42.23121304 5.79261182 -22.00899229 -0.00353201 0 0 Z M-84.66227722 44.3898468 C-106.90486866 69.03611731 -111.89610757 99.25116087 -111.75645435 131.26770687 C-111.74519281 134.87242673 -111.7573365 138.47708642 -111.76629639 142.08180237 C-111.78012915 149.11684888 -111.77274713 156.15171418 -111.7576208 163.18675184 C-111.74063688 171.40301822 -111.74398647 179.61924102 -111.74771488 187.83551955 C-111.75357522 202.50910113 -111.73949399 217.18259653 -111.71476746 231.8561554 C-111.69085212 246.05019866 -111.68376558 260.24412685 -111.69425964 274.43818665 C-111.7057044 289.94561076 -111.70755515 305.45298183 -111.69316155 320.96040535 C-111.69163593 322.61830266 -111.69011557 324.27619997 -111.68860054 325.93409729 C-111.68784273 326.74952385 -111.68708491 327.56495042 -111.68630413 328.40508687 C-111.68158871 334.11361766 -111.68339312 339.82212452 -111.68766594 345.53065491 C-111.69262525 352.50047863 -111.68646441 359.47019422 -111.66677164 366.43999338 C-111.65699282 369.98674766 -111.65169071 373.53333837 -111.65966415 377.08010101 C-111.73567617 415.06693457 -104.47249343 445.90583338 -77.24821472 473.52217102 C-71.9822954 478.73363482 -66.5853841 483.26748482 -60.24821472 487.14717102 C-59.40516785 487.67697571 -58.56212097 488.2067804 -57.69352722 488.75263977 C-55.23611056 490.26518346 -52.7563077 491.72051117 -50.24821472 493.14717102 C-49.60497253 493.51713196 -48.96173035 493.8870929 -48.29899597 494.26826477 C-28.1375128 505.13095067 -4.23832756 505.75253147 18.03236389 505.65541065 C21.64246197 505.64413819 25.2525004 505.65629606 28.8625946 505.66525269 C35.9051869 505.67907657 42.94759805 505.67171097 49.99018148 505.6565771 C58.21293403 505.63958935 66.43564307 505.64294307 74.65840778 505.64667118 C89.33930949 505.65252949 104.02012503 505.63845632 118.70100403 505.61372375 C132.90871914 505.58979143 147.11631925 505.58272895 161.3240509 505.59321594 C176.84537028 505.6046522 192.36663666 505.6065232 207.88795543 505.59211785 C209.54606421 505.5905922 211.204173 505.58907185 212.8622818 505.58755684 C213.67783551 505.58679902 214.49338922 505.58604121 215.33365668 505.58526043 C221.05012074 505.58053987 226.76656093 505.582353 232.4830246 505.58662224 C239.45693566 505.59157345 246.43073853 505.58545549 253.40462497 505.56572794 C256.95506512 505.55592826 260.50534133 505.55067054 264.05578995 505.55862045 C277.92850942 505.58641302 291.2444353 505.58848617 304.75178528 502.14717102 C305.78169209 501.90381736 306.81159889 501.6604637 307.872715 501.40973568 C334.57696983 494.93380035 359.41187636 476.33472203 373.72102356 452.90986633 C388.42924301 427.75748726 391.22114096 403.79594884 391.17327738 375.07061231 C391.17056952 371.47196326 391.18520803 367.8733736 391.19737244 364.27474976 C391.21827114 357.25077317 391.22297637 350.22687938 391.22118455 343.20287534 C391.21986924 337.48554441 391.22371993 331.76823899 391.23110962 326.05091286 C391.25396986 308.01805705 391.25953163 289.9852798 391.25159532 271.95241234 C391.24602207 257.78084928 391.26684734 243.6094671 391.29995579 229.43794628 C391.33381323 214.83068276 391.34884635 200.22350561 391.34423876 185.61620218 C391.34200653 177.43769352 391.3470532 169.25935209 391.37213135 161.0808773 C391.39330088 154.11878655 391.39658313 147.15695476 391.37783176 140.19485279 C391.36876985 136.65368092 391.36723061 133.11298979 391.38818741 129.57185745 C391.56396711 92.73189422 382.59429073 63.13205947 356.31428528 36.39717102 C351.18341159 31.30248746 345.94255407 26.92583286 339.75178528 23.14717102 C338.70635559 22.49232727 337.6609259 21.83748352 336.58381653 21.16279602 C316.62820156 9.00046426 295.60518311 4.98027145 272.40687561 5.01345825 C270.63208427 5.01005992 270.63208427 5.01005992 268.82143855 5.00659293 C265.57297339 5.00139805 262.32454349 5.00060107 259.07607555 5.0017873 C255.5585612 5.0019929 252.04105485 4.99645753 248.52354431 4.99172974 C241.645688 4.98345718 234.76784026 4.98067645 227.88997939 4.98011736 C222.29448261 4.97964063 216.69898863 4.97757808 211.10349274 4.97441673 C195.20755646 4.96561981 179.31162691 4.96099591 163.41568819 4.96174721 C162.56044788 4.96178716 161.70520758 4.96182712 160.8240509 4.96186829 C159.9677556 4.96190917 159.11146031 4.96195005 158.22921667 4.96199217 C144.35714463 4.96239847 130.48509977 4.95283025 116.61303559 4.93872992 C102.33825985 4.92433576 88.06349734 4.91746139 73.78871417 4.9183237 C65.78696465 4.91865459 57.78524362 4.91595472 49.78350067 4.90514565 C42.97045765 4.89600058 36.15745603 4.89389811 29.3444095 4.90065507 C25.87505844 4.90390004 22.40578664 4.90405104 18.93644333 4.89530182 C-22.23679118 4.81051429 -55.91259672 13.39609402 -84.66227722 44.3898468 Z " fill="#9A9A9A" transform="translate(116.24821472167969,0.8528289794921875)"/>
<path d="M0 0 C0.91957489 0.41176483 0.91957489 0.41176483 1.85772705 0.83184814 C2.96319885 1.3061602 2.96319885 1.3061602 4.09100342 1.79005432 C5.32034607 2.38175667 5.32034607 2.38175667 6.57452393 2.9854126 C7.99517151 3.6671479 7.99517151 3.6671479 9.44451904 4.36265564 C10.47806519 4.86424698 11.51161133 5.36583832 12.57647705 5.88262939 C14.21719177 6.67483635 14.21719177 6.67483635 15.89105225 7.48304749 C29.04073843 13.85500086 42.11300267 20.38350228 55.17803955 26.92681885 C58.72379676 28.70261235 62.27141126 30.47466188 65.81951141 32.24576855 C68.5807454 33.62458838 71.34103371 35.00529242 74.10102844 36.38659096 C75.41171432 37.04226672 76.72269601 37.69735149 78.03398132 38.35182762 C79.84012656 39.25363933 81.64486419 40.15826857 83.44952393 41.06304932 C84.98522034 41.83149422 84.98522034 41.83149422 86.55194092 42.61546326 C88.85772705 43.83184814 88.85772705 43.83184814 89.85772705 44.83184814 C89.98308357 46.43233016 90.03347492 48.03900742 90.04522705 49.64434814 C90.05940674 50.51704346 90.07358643 51.38973877 90.0881958 52.28887939 C89.83574286 55.07441951 89.45680137 56.54128223 87.85772705 58.83184814 C83.82964597 61.81743746 80.88107417 62.21117154 75.91889954 62.22625732 C74.88978625 62.23539398 74.88978625 62.23539398 73.83988279 62.24471521 C71.54756552 62.26132608 69.25580489 62.25657237 66.96343994 62.25177002 C65.31728031 62.25911145 63.67112584 62.2676979 62.02497864 62.2774353 C57.55802657 62.29965138 53.09125896 62.30258197 48.62425923 62.30068779 C44.89407953 62.3005681 41.16393894 62.30913147 37.43377012 62.31746531 C28.63341217 62.33669941 19.83314909 62.33958304 11.03277588 62.33282471 C1.95596114 62.32618235 -7.12044739 62.349056 -16.19717973 62.38613844 C-23.99266272 62.41683008 -31.78801499 62.4281961 -39.58355719 62.42430162 C-44.23843055 62.42223371 -48.89298776 62.42771996 -53.54780388 62.45219421 C-57.92530562 62.47445028 -62.30214655 62.47259334 -66.67965126 62.45226669 C-68.2848601 62.44885469 -69.89011334 62.45395406 -71.49526215 62.46825027 C-73.68976494 62.48644482 -75.8820262 62.47369661 -78.07646179 62.45330811 C-79.30332671 62.45402061 -80.53019163 62.45473312 -81.79423428 62.45546722 C-86.29649425 61.61685827 -87.93731922 60.07076283 -91.14227295 56.83184814 C-92.48931456 52.79072331 -92.20340536 49.04998419 -92.14227295 44.83184814 C-91.19156921 44.35771988 -90.24086548 43.88359161 -89.26135254 43.39509583 C-81.29402772 39.41838628 -73.33804587 35.42014094 -65.39464951 31.39585209 C-58.9643417 28.13840482 -52.5284121 24.89220431 -46.09021378 21.65038204 C-41.78406352 19.48151252 -37.48033183 17.30808065 -33.18133545 15.12506104 C-28.97952152 12.99163897 -24.77200656 10.86988694 -20.56023407 8.75619698 C-18.96489447 7.95299074 -17.37167068 7.14556752 -15.78064728 6.33384514 C-13.57099983 5.20733745 -11.35437276 4.09592652 -9.13543701 2.987854 C-8.48300018 2.65084976 -7.83056335 2.31384552 -7.15835571 1.96662903 C-2.73538794 -0.21470679 -2.73538794 -0.21470679 0 0 Z " fill="#FCFCFC" transform="translate(231.14227294921875,273.16815185546875)"/>
<path d="M0 0 C0.67861399 -0.00482883 1.35722797 -0.00965766 2.05640602 -0.01463282 C4.32364374 -0.02587814 6.58974705 -0.00860561 8.85693359 0.00863647 C10.4850088 0.00648995 12.11308251 0.00261127 13.7411499 -0.00286865 C18.15855517 -0.01255784 22.57555593 0.00273599 26.99291229 0.02303743 C31.61636388 0.04061331 36.23980307 0.03708325 40.86328125 0.03631592 C48.6275102 0.03818866 56.39158276 0.05554872 64.15576172 0.08285522 C73.13136291 0.11430573 82.10679283 0.12485138 91.08244514 0.12338412 C100.63905528 0.12203288 110.19559942 0.13591751 119.75218964 0.15427732 C122.50547029 0.15853897 125.25874028 0.15995955 128.01202393 0.16075516 C132.33929962 0.16276523 136.6664317 0.17498459 140.99365997 0.19508743 C142.58153657 0.20092568 144.16942969 0.20339054 145.75731659 0.20223236 C147.92527744 0.20124952 150.09283727 0.21257566 152.26074219 0.22705078 C153.47378021 0.23040247 154.68681824 0.23375416 155.93661499 0.23720741 C159.88816427 0.55551937 162.80496404 1.4057491 165.88037109 3.93197632 C168.32893827 6.99268529 168.24152805 9.93539101 168.19287109 13.68197632 C168.18384766 14.58303101 168.17482422 15.48408569 168.16552734 16.41244507 C168.148125 17.44305054 168.148125 17.44305054 168.13037109 18.49447632 C167.61233917 18.73736389 167.09430725 18.98025146 166.56057739 19.23049927 C154.5405141 24.88396581 142.62385004 30.71749453 130.77941132 36.72828674 C128.61414109 37.82687208 126.44787862 38.92347645 124.28131104 40.01950073 C115.35572251 44.53521737 115.35572251 44.53521737 106.44238281 49.07504272 C102.75203275 50.96070473 99.05503858 52.83270306 95.35318375 54.69567108 C93.95919484 55.40035678 92.56772881 56.11005746 91.17895126 56.8249588 C89.25610474 57.81407701 87.32526414 58.78550453 85.39160156 59.75326538 C84.29959442 60.30854919 83.20758728 60.86383301 82.08248901 61.4359436 C77.41643195 63.10903871 74.66376512 61.80172626 70.36705017 59.79319763 C68.88005103 59.05402956 67.39633293 58.30823817 65.9152832 57.55722046 C64.69487587 56.94734535 64.69487587 56.94734535 63.44981384 56.32514954 C60.76622983 54.98231424 58.08699575 53.63103035 55.40771484 52.27963257 C53.54140547 51.34367868 51.6748295 50.40825622 49.80799866 49.4733429 C44.89632558 47.0117833 39.98829697 44.54304143 35.08099365 42.07278442 C30.08855206 39.56124257 25.09272636 37.05645192 20.09716797 34.55111694 C12.03025175 30.50446686 3.96547739 26.4535853 -4.09674072 22.39758301 C-4.80180252 22.04288437 -5.50686432 21.68818573 -6.23329163 21.32273865 C-6.84255525 21.01615861 -7.45181887 20.70957857 -8.07954502 20.39370823 C-10.00832961 19.42480131 -11.93876069 18.4592233 -13.86962891 17.49447632 C-14.17626506 8.44870973 -14.17626506 8.44870973 -11.86962891 4.49447632 C-7.95672205 0.65965605 -5.42462344 -0.00487233 0 0 Z " fill="#FCFCFC" transform="translate(152.86962890625,176.50552368164063)"/>
</svg>
