<?xml version="1.0" encoding="UTF-8"?>
<svg version="1.1" xmlns="http://www.w3.org/2000/svg" width="512" height="512">
<path d="M0 0 C1.94593563 -0.00599176 3.89186889 -0.01279879 5.83779907 -0.02035522 C11.10258893 -0.03795865 16.3673137 -0.04270828 21.63213015 -0.0439868 C24.92857183 -0.04541242 28.22499717 -0.04968984 31.52143478 -0.05498123 C43.04229525 -0.07346438 54.56310957 -0.08165419 66.08398438 -0.08007812 C76.7891887 -0.07887792 87.49419103 -0.09996095 98.19934428 -0.13156545 C107.41756365 -0.15780122 116.63571736 -0.16844233 125.85397375 -0.16716731 C131.34740969 -0.16665972 136.84066604 -0.17222941 142.33406448 -0.19352341 C147.50688804 -0.21302861 152.67936299 -0.21294701 157.85219955 -0.19849014 C159.7386349 -0.19641594 161.62509278 -0.20101889 163.51148987 -0.21321106 C189.16857339 -0.36814814 211.13362568 7.2526107 230.00927734 24.97802734 C246.81610786 42.66942789 254.33774442 64.40811109 254.17675781 88.61303711 C253.57057573 111.89767263 243.3720918 133.01150978 226.75927734 149.29052734 C213.90682053 160.55279664 199.0352622 166.78865919 182.75927734 171.29052734 C183.65646484 171.48646484 184.55365234 171.68240234 185.47802734 171.88427734 C208.62983025 177.43305655 228.98768817 190.61074639 241.75439453 211.01855469 C253.20360261 230.15119746 256.93382256 252.96886831 252.57177734 274.85302734 C248.33344745 291.33542139 240.81073187 305.21888613 228.75927734 317.29052734 C228.00001953 318.06138672 227.24076172 318.83224609 226.45849609 319.62646484 C209.26900224 336.11262426 186.09297586 342.58179351 162.75927734 343.29052734 C152.31662701 343.05009649 141.61917898 341.84933559 131.75927734 338.29052734 C130.78990234 337.94119141 129.82052734 337.59185547 128.82177734 337.23193359 C109.23298065 329.61129202 95.04798072 315.92744486 86.20068359 296.94677734 C84.41118579 292.76959268 82.82316039 288.70842627 81.75927734 284.29052734 C81.75781078 285.05214865 81.75634422 285.81376995 81.75483322 286.59847069 C81.71763837 305.20634929 81.65845722 323.81404212 81.5753746 342.42177391 C81.53571469 351.42067097 81.50325638 360.41948223 81.48828125 369.41845703 C81.4751966 377.27005636 81.44806035 385.12146586 81.40466428 392.97295821 C81.38220119 397.12296166 81.36635743 401.27273234 81.36739349 405.42280197 C81.36673218 437.84353357 77.58952879 464.12603693 54.57177734 488.85302734 C37.00147026 505.70941676 14.59724547 513.0009295 -9.35986328 512.7590332 C-33.5563484 512.02260172 -54.48089339 501.90196903 -71.11572266 484.41552734 C-88.22019041 464.29635748 -94.13256723 441.11990405 -92.24072266 415.29052734 C-89.88901443 394.57724536 -78.08938916 374.54947529 -62.55712891 360.93896484 C-50.14065936 351.13382879 -36.36133212 345.47282358 -21.24072266 341.29052734 C-22.58650391 340.99662109 -22.58650391 340.99662109 -23.95947266 340.69677734 C-38.77022925 337.14709188 -51.30486125 330.80722756 -63.24072266 321.29052734 C-64.45115234 320.40107422 -64.45115234 320.40107422 -65.68603516 319.49365234 C-68.89301633 316.72799885 -71.35463226 313.6379456 -73.92822266 310.29052734 C-74.41355469 309.67435547 -74.89888672 309.05818359 -75.39892578 308.42333984 C-77.6943692 305.47250775 -79.64507811 302.68618471 -81.24072266 299.29052734 C-81.90072266 298.63052734 -82.56072266 297.97052734 -83.24072266 297.29052734 C-84.07861328 295.49389648 -84.07861328 295.49389648 -84.89697266 293.32568359 C-85.19659912 292.53186279 -85.49622559 291.73804199 -85.80493164 290.92016602 C-94.2964628 267.62550122 -95.6111154 243.19718925 -85.20019531 220.13769531 C-75.28552789 199.43189778 -57.94914548 183.10096519 -36.24072266 175.29052734 C-31.28675759 173.77778978 -26.27450969 172.50651638 -21.24072266 171.29052734 C-21.80355957 171.12037109 -22.36639648 170.95021484 -22.94628906 170.77490234 C-48.65170058 162.89617014 -69.64871972 150.60861217 -82.57519531 126.33569336 C-93.14829799 105.55416329 -96.03886652 81.59342753 -88.88671875 59.15576172 C-81.30286118 37.25830448 -65.94583114 18.83595258 -45.24072266 8.29052734 C-42.54672458 7.06550196 -39.82022007 5.96431922 -37.05322266 4.91552734 C-36.42480469 4.67697021 -35.79638672 4.43841309 -35.14892578 4.19262695 C-23.51623156 0.03186365 -12.20424215 -0.00751186 0 0 Z M80.75927734 171.29052734 C80.75927734 191.42052734 80.75927734 211.55052734 80.75927734 232.29052734 C82.38005623 229.04896956 83.37834604 226.34697523 84.38427734 222.91552734 C88.32835781 210.98140933 94.84399121 201.11326726 103.75927734 192.29052734 C104.75314453 191.24638672 104.75314453 191.24638672 105.76708984 190.18115234 C115.24010129 180.88823617 129.72253923 174.39322704 142.75927734 172.29052734 C142.75927734 171.96052734 142.75927734 171.63052734 142.75927734 171.29052734 C122.29927734 171.29052734 101.83927734 171.29052734 80.75927734 171.29052734 Z " fill="#864FFE" transform="translate(175.24072265625,-0.29052734375)"/>
<path d="M0 0 C1.94593563 -0.00599176 3.89186889 -0.01279879 5.83779907 -0.02035522 C11.10258893 -0.03795865 16.3673137 -0.04270828 21.63213015 -0.0439868 C24.92857183 -0.04541242 28.22499717 -0.04968984 31.52143478 -0.05498123 C43.04229525 -0.07346438 54.56310957 -0.08165419 66.08398438 -0.08007812 C76.7891887 -0.07887792 87.49419103 -0.09996095 98.19934428 -0.13156545 C107.41756365 -0.15780122 116.63571736 -0.16844233 125.85397375 -0.16716731 C131.34740969 -0.16665972 136.84066604 -0.17222941 142.33406448 -0.19352341 C147.50688804 -0.21302861 152.67936299 -0.21294701 157.85219955 -0.19849014 C159.7386349 -0.19641594 161.62509278 -0.20101889 163.51148987 -0.21321106 C189.16857339 -0.36814814 211.13362568 7.2526107 230.00927734 24.97802734 C246.81610786 42.66942789 254.33774442 64.40811109 254.17675781 88.61303711 C253.57057573 111.89767263 243.3720918 133.01150978 226.75927734 149.29052734 C211.2880866 162.84752419 191.43594846 171.45550512 170.73573303 171.43096924 C169.94489726 171.43394036 169.15406149 171.43691148 168.339261 171.43997264 C165.69808699 171.44862091 163.05695851 171.45016463 160.41577148 171.45166016 C158.51806543 171.45629123 156.6203603 171.46131629 154.72265625 171.46670532 C149.57134257 171.47980723 144.42004192 171.48627049 139.26871419 171.49071598 C136.04534116 171.49365152 132.82197164 171.49775733 129.59860039 171.50222015 C119.49919116 171.51589201 109.39979002 171.52555903 99.30037218 171.52942204 C87.66951687 171.53389597 76.03877948 171.55141429 64.40796 171.58042264 C55.40130726 171.60210042 46.39468754 171.61212964 37.38800901 171.61346316 C32.01697369 171.61450724 26.64604927 171.62032944 21.27504158 171.63828278 C16.21477386 171.65486813 11.15469912 171.6568686 6.09441376 171.64814377 C4.24787564 171.64737884 2.40132671 171.65164327 0.55481529 171.66160202 C-25.47361808 171.79362672 -48.38560695 165.00481001 -67.71972656 146.80273438 C-83.72017605 130.89474335 -92.4024198 108.85202153 -92.55322266 86.47802734 C-92.58817754 61.92028299 -83.55770487 40.87950404 -66.24072266 23.29052734 C-57.93614169 14.96882353 -47.99296064 9.06208283 -37.05322266 4.91552734 C-36.42480469 4.67697021 -35.79638672 4.43841309 -35.14892578 4.19262695 C-23.51623156 0.03186365 -12.20424215 -0.00751186 0 0 Z " fill="#FE7137" transform="translate(175.24072265625,-0.29052734375)"/>
<path d="M0 0 C0.99242392 -0.00024107 1.98484783 -0.00048214 3.0073452 -0.00073051 C6.18386534 0.00074881 9.36014356 0.01591762 12.53662109 0.03173828 C14.5121245 0.034683 16.48762948 0.0367208 18.46313477 0.0378418 C25.74546668 0.04827938 33.02776507 0.0762019 40.31005859 0.10205078 C56.60380859 0.14330078 72.89755859 0.18455078 89.68505859 0.22705078 C89.68505859 56.65705078 89.68505859 113.08705078 89.68505859 171.22705078 C66.14162109 171.31986328 66.14162109 171.31986328 42.12255859 171.41455078 C34.73127563 171.4555188 34.73127563 171.4555188 27.19067383 171.49731445 C21.10119629 171.51086426 21.10119629 171.51086426 18.23646545 171.51338196 C16.26627053 171.51794199 14.29608314 171.52839431 12.32594299 171.54377747 C-14.88605939 171.74534385 -38.42689387 165.91378544 -58.79394531 146.73925781 C-74.7943948 130.83126679 -83.47663855 108.78854497 -83.62744141 86.41455078 C-83.66239629 61.85680643 -74.63192362 40.81602748 -57.31494141 23.22705078 C-49.01036044 14.90534697 -39.06717939 8.99860626 -28.12744141 4.85205078 C-27.49902344 4.61349365 -26.87060547 4.37493652 -26.22314453 4.12915039 C-17.59823759 1.04420759 -9.12705512 -0.0729088 0 0 Z " fill="#FE3737" transform="translate(166.31494140625,-0.22705078125)"/>
<path d="M0 0 C0.94711853 -0.00014603 1.89423706 -0.00029205 2.87005615 -0.0004425 C5.98118429 0.00025069 9.09225155 0.00801524 12.20336914 0.01586914 C14.36812813 0.01773543 16.53288754 0.01915834 18.69764709 0.02015686 C24.38084083 0.02396545 30.06400879 0.03378154 35.74719238 0.04486084 C41.55224255 0.05511066 47.3572969 0.05966212 53.16235352 0.06469727 C64.5419221 0.07540533 75.9214716 0.09246178 87.30102539 0.11352539 C87.39428812 12.05866269 87.46507315 24.00371136 87.50827408 35.94914055 C87.52902317 41.49771999 87.55710522 47.04604776 87.6027832 52.59448242 C87.64669808 57.96322172 87.67025743 63.33172112 87.68053436 68.70062637 C87.68784474 70.73444513 87.70211623 72.76825288 87.72394562 74.80196762 C88.01588774 103.16520851 80.75475349 126.57629025 61.11352539 147.67602539 C43.5432183 164.53241481 21.13899352 171.82392754 -2.81811523 171.58203125 C-27.01460035 170.84559977 -47.93914534 160.72496708 -64.57397461 143.23852539 C-81.67844236 123.11935553 -87.59081918 99.9429021 -85.69897461 74.11352539 C-83.34726638 53.40024341 -71.54764112 33.37247333 -56.01538086 19.76196289 C-39.69202032 6.87160219 -20.85307882 -0.08501692 0 0 Z " fill="#24CA71" transform="translate(168.698974609375,340.886474609375)"/>
<path d="M0 0 C0.84519196 -0.00807175 1.69038391 -0.01614349 2.56118774 -0.02445984 C4.35148087 -0.03826458 6.14179991 -0.04900281 7.93212891 -0.05688477 C9.73559462 -0.06832767 11.53902858 -0.08865529 13.34228516 -0.1184082 C28.09156148 -0.36128957 41.27043016 0.90532383 54.5390625 7.98828125 C55.53425903 8.50588013 55.53425903 8.50588013 56.54956055 9.03393555 C78.69322157 20.84156499 92.54094101 38.87814056 100.0390625 62.55078125 C106.28519263 83.35911011 102.56389894 107.70259271 92.50390625 126.58984375 C88.18873341 133.91620082 83.29038914 140.22690214 77.2890625 146.23828125 C76.52980469 147.00914062 75.77054688 147.78 74.98828125 148.57421875 C57.79878739 165.06037816 34.62276101 171.52954742 11.2890625 172.23828125 C0.84641216 171.9978504 -9.85103587 170.7970895 -19.7109375 167.23828125 C-21.165 166.71427734 -21.165 166.71427734 -22.6484375 166.1796875 C-42.28852216 158.53909334 -56.16070635 144.93889013 -65.234375 126.0703125 C-69.35245451 116.67966299 -71.02194272 108.04837264 -71.046875 97.82421875 C-71.0535318 96.85151031 -71.0601886 95.87880188 -71.06704712 94.87661743 C-71.0771178 92.8277575 -71.08186588 90.77886513 -71.08154297 88.72998047 C-71.08589654 85.64233414 -71.12222275 82.55614243 -71.16015625 79.46875 C-71.28245912 58.33845426 -66.8865407 39.91644372 -51.83837891 24.31274414 C-50.47405834 22.94304487 -49.09284534 21.59023444 -47.7109375 20.23828125 C-47.00453125 19.49964844 -46.298125 18.76101562 -45.5703125 18 C-33.83058446 6.46190851 -16.21039564 0.14929155 0 0 Z " fill="#00B5FE" transform="translate(326.7109375,170.76171875)"/>
</svg>
